<svg width="80" height="80" viewBox="0 0 80 80" fill="none" xmlns="http://www.w3.org/2000/svg">
<g filter="url(#filter0_dd_609_2175)">
<rect x="10" y="10" width="60" height="60" rx="30" fill="#F4F5FC"/>
</g>
<g opacity="0.5">
<path d="M44.5953 28.0464C45.0823 28.0889 45.5692 28.1372 46.058 28.1681C46.2416 28.1797 46.2976 28.2493 46.2957 28.4251C46.2899 29.5477 46.2899 30.6684 46.2957 31.791C46.2957 31.99 46.2203 32.0383 46.0348 32.0403C45.2252 32.0461 44.4156 32.0055 43.606 32.075C43.3877 32.0944 43.1732 32.1272 42.9665 32.1948C42.3849 32.3861 42.0951 32.817 41.9946 33.3986C41.9579 33.6131 41.9405 33.8295 41.9405 34.0498C41.9443 34.8748 41.9463 35.7018 41.9385 36.5269C41.9366 36.7201 41.9984 36.7838 42.1936 36.7819C43.409 36.7761 44.6243 36.7781 45.8397 36.7781C46.1488 36.7781 46.1508 36.78 46.1102 37.0949C45.9518 38.3528 45.7894 39.6107 45.6349 40.8685C45.6097 41.0695 45.5035 41.1004 45.3334 41.1004C44.3055 41.0965 43.2776 41.0985 42.2477 41.1004C41.9424 41.1004 41.9405 41.1004 41.9405 41.4134C41.9405 44.818 41.9405 48.2225 41.9405 51.6271C41.9405 51.8757 41.8181 52 41.5734 52C40.3348 52 39.0963 52 37.8577 52C37.6078 52 37.4829 51.877 37.4829 51.631C37.4829 48.2573 37.4829 44.8837 37.4829 41.51C37.4829 41.2357 37.3418 41.0985 37.0597 41.0985C36.0781 41.0985 35.0966 41.0927 34.115 41.1023C33.8928 41.1043 33.8194 41.0328 33.8213 40.8086C33.831 39.5624 33.831 38.3161 33.8213 37.0698C33.8213 36.8457 33.8909 36.7742 34.115 36.7761C35.1275 36.7858 36.14 36.78 37.1525 36.78C37.3714 36.78 37.4816 36.6666 37.4829 36.4399C37.4829 35.5511 37.4732 34.6642 37.4867 33.7754C37.5003 32.8846 37.5969 32.0036 37.9311 31.1669C38.5862 29.5303 39.8015 28.5681 41.4999 28.1836C41.7492 28.1275 42.0042 28.0928 42.2574 28.0483C43.036 28.0483 43.8167 28.0483 44.5953 28.0483V28.0464Z" fill="#007EFA"/>
</g>
<defs>
<filter id="filter0_dd_609_2175" x="0" y="0" width="78" height="78" filterUnits="userSpaceOnUse" color-interpolation-filters="sRGB">
<feFlood flood-opacity="0" result="BackgroundImageFix"/>
<feColorMatrix in="SourceAlpha" type="matrix" values="0 0 0 0 0 0 0 0 0 0 0 0 0 0 0 0 0 0 127 0" result="hardAlpha"/>
<feOffset dx="2" dy="2"/>
<feGaussianBlur stdDeviation="3"/>
<feComposite in2="hardAlpha" operator="out"/>
<feColorMatrix type="matrix" values="0 0 0 0 0 0 0 0 0 0 0 0 0 0 0 0 0 0 0.25 0"/>
<feBlend mode="normal" in2="BackgroundImageFix" result="effect1_dropShadow_609_2175"/>
<feColorMatrix in="SourceAlpha" type="matrix" values="0 0 0 0 0 0 0 0 0 0 0 0 0 0 0 0 0 0 127 0" result="hardAlpha"/>
<feOffset dx="-2" dy="-2"/>
<feGaussianBlur stdDeviation="4"/>
<feComposite in2="hardAlpha" operator="out"/>
<feColorMatrix type="matrix" values="0 0 0 0 1 0 0 0 0 1 0 0 0 0 1 0 0 0 0.8 0"/>
<feBlend mode="normal" in2="effect1_dropShadow_609_2175" result="effect2_dropShadow_609_2175"/>
<feBlend mode="normal" in="SourceGraphic" in2="effect2_dropShadow_609_2175" result="shape"/>
</filter>
</defs>
</svg>
