<svg width="40" height="40" viewBox="0 0 40 40" fill="none" xmlns="http://www.w3.org/2000/svg">
<path d="M29.9899 22.0889C29.9899 23.4724 29.9986 24.5997 29.9874 25.7275C29.9768 26.7974 29.6513 27.7607 28.9493 28.5812C28.1955 29.4628 27.2303 29.9317 26.0782 29.9753C25.3175 30.004 24.5513 30.0426 23.7943 29.956C22.6677 29.8275 21.9607 28.9977 21.9545 27.8586C21.9482 26.77 21.9607 25.6808 21.9457 24.5928C21.937 23.9438 21.6714 23.3951 21.1608 22.9929C20.0217 22.0964 18.4237 22.718 18.0982 24.1719C18.0483 24.3945 18.0434 24.6184 18.0434 24.8441C18.0434 25.8547 18.0483 26.866 18.0415 27.8767C18.0346 28.8936 17.4267 29.6829 16.4834 29.9167C16.3936 29.9391 16.3001 29.9578 16.2078 29.961C15.2757 29.9915 14.3368 30.0676 13.4146 29.9186C11.7069 29.643 10.4014 28.3056 10.0934 26.5904C10.0354 26.2687 10.0061 25.9439 10.0061 25.6172C10.0061 23.4942 10.0248 21.3706 10.0005 19.2483C9.98175 17.6391 10.5429 16.3466 11.8198 15.3304C13.5106 13.9843 15.1529 12.5771 16.8232 11.2054C18.7759 9.60121 21.205 9.59622 23.169 11.2023C24.969 12.6737 26.7621 14.1539 28.5397 15.6521C29.3988 16.3759 29.8633 17.3336 29.9506 18.4521C30.0522 19.7484 29.9606 21.0483 29.9905 22.0901L29.9899 22.0889Z" fill="#ED1F96"/>
</svg>
