<svg width="80" height="80" viewBox="0 0 80 80" fill="none" xmlns="http://www.w3.org/2000/svg">
<g filter="url(#filter0_dd_609_2091)">
<rect x="10" y="10" width="60" height="60" rx="30" fill="#F4F5FC"/>
</g>
<g opacity="0.5" clip-path="url(#clip0_609_2091)">
<path d="M51.9539 34.7438V45.0938C51.8982 45.5486 51.8611 46.0081 51.7822 46.463C51.3134 49.1735 49.4012 51.1599 46.7232 51.7215C45.5397 51.9675 44.3376 51.9861 43.1355 51.9954C41.0423 52.0093 38.9537 52.0046 36.8605 51.9954C35.8302 51.9907 34.8044 51.9582 33.7787 51.8144C30.9568 51.4245 28.8961 49.5308 28.2835 46.7554C28.0328 45.609 28.0189 44.4487 28.0096 43.2837C27.9957 41.5432 28.005 39.8027 28.005 38.0623C28.005 36.7209 27.9911 35.3796 28.1535 34.0429C28.302 32.8176 28.678 31.6666 29.4299 30.6687C30.7016 28.97 32.4792 28.246 34.5352 28.0789C34.939 28.0464 35.3428 28.0278 35.7466 28C38.5732 28 41.3997 28 44.2216 28C44.3144 28.0093 44.4072 28.0278 44.5001 28.0278C45.1777 28.0418 45.8553 28.0882 46.5236 28.2228C49.1645 28.7565 50.905 30.2835 51.6476 32.9012C51.8193 33.5045 51.8797 34.1265 51.9539 34.7438ZM40.0073 49.8C41.4043 49.8232 42.8013 49.7768 44.1984 49.749C44.8574 49.7351 45.5211 49.7072 46.1756 49.5726C47.9067 49.2106 49.0439 48.2127 49.5126 46.4815C49.7354 45.6647 49.7586 44.8292 49.7725 43.9985C49.8004 42.0398 49.8004 40.0812 49.7957 38.1226C49.7957 36.7906 49.8189 35.4539 49.6426 34.1265C49.378 32.1447 48.1667 30.8451 46.222 30.4367C45.2844 30.2371 44.3283 30.2371 43.3815 30.2278C41.1398 30.2046 38.9027 30.2046 36.6609 30.2278C35.7652 30.2371 34.8694 30.2557 33.9783 30.4042C32.1125 30.7198 30.8826 31.8847 30.4649 33.732C30.2792 34.5581 30.256 35.4075 30.2514 36.2429C30.2282 38.7492 30.2328 41.2555 30.2514 43.7571C30.256 44.5368 30.2792 45.3166 30.4277 46.087C30.7712 47.8646 31.7737 49.0342 33.5467 49.503C34.2985 49.7026 35.0736 49.7351 35.8441 49.749C37.2318 49.7768 38.6196 49.8232 40.0119 49.8H40.0073ZM39.9934 46.1798C36.596 46.1752 33.8159 43.3812 33.8159 39.9791C33.8159 36.5817 36.6145 33.7923 40.0119 33.7923C43.4186 33.7923 46.2127 36.6003 46.2034 40.007C46.1895 43.409 43.3954 46.1845 39.9934 46.1798ZM39.9934 43.952C42.1887 43.952 43.9709 42.1884 43.9709 40.007C43.9709 37.8163 42.2026 36.0248 40.0259 36.0201C37.8166 36.0201 36.039 37.7838 36.039 39.9791C36.039 42.1744 37.8027 43.9474 39.9887 43.9474L39.9934 43.952ZM47.8835 33.5788C47.8743 32.7851 47.192 32.1122 46.4076 32.1214C45.6047 32.1307 44.9595 32.7851 44.9595 33.5881C44.9595 34.4096 45.5907 35.0454 46.4076 35.0454C47.2245 35.0454 47.8928 34.3864 47.8835 33.5788Z" fill="#1976D2"/>
</g>
<defs>
<filter id="filter0_dd_609_2091" x="0" y="0" width="78" height="78" filterUnits="userSpaceOnUse" color-interpolation-filters="sRGB">
<feFlood flood-opacity="0" result="BackgroundImageFix"/>
<feColorMatrix in="SourceAlpha" type="matrix" values="0 0 0 0 0 0 0 0 0 0 0 0 0 0 0 0 0 0 127 0" result="hardAlpha"/>
<feOffset dx="2" dy="2"/>
<feGaussianBlur stdDeviation="3"/>
<feComposite in2="hardAlpha" operator="out"/>
<feColorMatrix type="matrix" values="0 0 0 0 0 0 0 0 0 0 0 0 0 0 0 0 0 0 0.25 0"/>
<feBlend mode="normal" in2="BackgroundImageFix" result="effect1_dropShadow_609_2091"/>
<feColorMatrix in="SourceAlpha" type="matrix" values="0 0 0 0 0 0 0 0 0 0 0 0 0 0 0 0 0 0 127 0" result="hardAlpha"/>
<feOffset dx="-2" dy="-2"/>
<feGaussianBlur stdDeviation="4"/>
<feComposite in2="hardAlpha" operator="out"/>
<feColorMatrix type="matrix" values="0 0 0 0 1 0 0 0 0 1 0 0 0 0 1 0 0 0 0.8 0"/>
<feBlend mode="normal" in2="effect1_dropShadow_609_2091" result="effect2_dropShadow_609_2091"/>
<feBlend mode="normal" in="SourceGraphic" in2="effect2_dropShadow_609_2091" result="shape"/>
</filter>
<clipPath id="clip0_609_2091">
<rect width="23.9536" height="24" fill="white" transform="translate(28 28)"/>
</clipPath>
</defs>
</svg>
