<svg width="41" height="40" viewBox="0 0 41 40" fill="none" xmlns="http://www.w3.org/2000/svg">
<path opacity="0.5" d="M34 20.6684C33.8697 21.337 33.7633 22.0105 33.5216 22.6538C32.5685 25.1945 30.8519 27.0187 28.2949 27.9239C24.9486 29.1086 21.9188 28.4445 19.2706 26.0802C18.9011 25.7503 18.6688 25.3046 18.3918 24.9005C17.7737 23.9991 17.1511 23.0951 16.9113 22.0011C16.7457 21.2463 16.6242 20.4809 16.4417 19.7305C16.266 19.0072 16.0728 18.2883 15.5969 17.6777C14.7987 16.6529 13.3949 16.1808 12.0931 16.5302C10.8537 16.8625 9.86412 17.9824 9.69857 19.2389C9.52798 20.5325 9.95225 21.602 10.984 22.3851C12.0277 23.1776 13.184 23.2752 14.3883 22.7583C14.958 22.5141 15.2507 22.635 15.4584 23.2248C15.617 23.6736 15.843 24.0885 16.0766 24.5001C16.1395 24.6109 16.2043 24.7211 16.256 24.8375C16.4908 25.3688 16.2799 25.9159 15.7517 26.1582C13.3899 27.2416 10.2934 26.7329 8.3716 24.9811C7.02639 23.7548 6.21812 22.2541 6.03872 20.4532C5.84169 18.4766 6.3969 16.7014 7.69931 15.1881C8.87079 13.8271 10.362 13.0189 12.1429 12.8086C14.1598 12.5701 15.9683 13.1127 17.5175 14.4384C18.2326 15.0502 18.8482 15.7572 19.3549 16.556C19.9051 17.4241 20.2054 18.3639 20.1865 19.395C20.1695 20.3008 20.3099 21.1701 20.7153 21.9891C21.6689 23.9147 23.7865 25.0692 25.8714 24.796C28.0608 24.5083 29.7875 22.9422 30.2514 20.822C30.8765 17.9667 28.949 15.1579 26.0527 14.7229C24.603 14.5051 23.2892 14.8476 22.1291 15.7515C21.5751 16.1833 21.1748 16.1279 20.7782 15.5519C20.4735 15.1094 20.1531 14.6795 19.8082 14.2665C19.3436 13.7088 19.4229 13.2109 19.9989 12.7772C21.4845 11.6567 23.1589 11.0379 25.0115 11.002C27.7051 10.9498 29.9889 11.9217 31.8037 13.9342C33.0092 15.2712 33.7111 16.8449 33.9559 18.6257C33.9647 18.6881 33.9849 18.7491 33.9994 18.8108V20.6684H34Z" fill="#51556F"/>
</svg>
