<svg width="60" height="60" viewBox="0 0 60 60" fill="none" xmlns="http://www.w3.org/2000/svg">
<rect width="60" height="60" rx="30" fill="white"/>
<path d="M0 30C0 13.4315 13.4315 0 30 0C46.5685 0 60 13.4315 60 30C60 46.5685 46.5685 60 30 60C13.4315 60 0 46.5685 0 30Z" fill="url(#paint0_linear_617_1680)"/>
<path d="M39.2521 25.149C39.2208 26.4719 39.3052 27.7958 39.1104 29.1146C38.5594 32.8542 35.3323 36.0792 31.5927 36.6896C26.5521 37.5115 21.9469 34.151 21.0208 29.3896C20.9042 28.7885 20.8385 28.1823 20.8344 27.5719C20.824 25.9354 20.8208 24.299 20.8333 22.6625C20.8667 17.9771 24.249 14.1365 28.8906 13.5042C33.7344 12.8437 38.4052 16.3573 39.1167 21.1823C39.3115 22.5021 39.2177 23.826 39.2531 25.1479L39.2521 25.149ZM24.2813 25.1073C24.2813 25.1073 24.2792 25.1073 24.2781 25.1073C24.2781 25.951 24.2781 26.7958 24.2781 27.6396C24.2781 28.0167 24.299 28.3906 24.374 28.7625C24.926 31.5052 27.499 33.7906 30.8365 33.3375C33.7615 32.9406 35.7823 30.5521 35.8 27.599C35.8094 25.95 35.8042 24.3 35.8 22.651C35.8 22.3406 35.7958 22.0302 35.7469 21.7198C35.2979 18.8667 32.7375 16.7479 29.7865 16.8625C26.8531 16.976 24.3427 19.4417 24.2854 22.3802C24.2677 23.2885 24.2823 24.199 24.2823 25.1073H24.2813Z" fill="white"/>
<path d="M28.3168 44.3645C28.3158 43.3843 28.3148 43.3885 27.3544 43.1833C23.9387 42.4551 21.2137 40.6645 19.1585 37.8489C18.5418 37.0041 18.6606 35.9635 19.4293 35.3885C20.2356 34.7853 21.2564 34.9437 21.8898 35.8156C23.3439 37.8176 25.2491 39.1572 27.6502 39.7572C31.6596 40.7593 35.8262 39.1833 38.1991 35.7749C38.6137 35.1801 39.1179 34.7728 39.87 34.8239C41.1991 34.9145 41.9106 36.3562 41.17 37.4781C39.9752 39.2874 38.4273 40.726 36.5293 41.7812C35.1418 42.5531 33.6616 43.0583 32.095 43.3051C31.8481 43.3437 31.7585 43.4447 31.7616 43.6812C31.7679 44.1228 31.7731 44.5645 31.7585 45.0062C31.7221 46.0406 30.9741 46.8114 30.0304 46.802C29.0783 46.7926 28.3533 46.0249 28.3189 44.9874C28.3116 44.7801 28.3189 44.5718 28.3189 44.3635L28.3168 44.3645Z" fill="white"/>
<defs>
<linearGradient id="paint0_linear_617_1680" x1="-29.5" y1="-36.5" x2="62.4058" y2="-23.5925" gradientUnits="userSpaceOnUse">
<stop offset="0.0234546" stop-color="#0AFDF7"/>
<stop offset="0.279478" stop-color="#9747FF"/>
<stop offset="0.657466" stop-color="#EE0245"/>
<stop offset="1" stop-color="#FF4400"/>
</linearGradient>
</defs>
</svg>
