<svg width="40" height="40" viewBox="0 0 40 40" fill="none" xmlns="http://www.w3.org/2000/svg">
<g opacity="0.5">
<path d="M19.5727 21.5325C16.2251 21.5325 12.8765 21.5325 9.52891 21.5325C9.38865 21.5325 9.24838 21.5372 9.10905 21.526C8.17677 21.4512 7.61011 20.8527 7.62226 19.9597C7.63442 19.0854 8.20482 18.5103 9.12682 18.4439C9.23155 18.4364 9.33628 18.4392 9.44195 18.4392C16.2195 18.4392 22.997 18.4392 29.7745 18.4411C29.9597 18.4411 30.1486 18.4514 30.3309 18.4823C31.1295 18.6197 31.598 19.1864 31.5942 19.9943C31.5905 20.8003 31.1201 21.3577 30.3141 21.4923C30.1205 21.525 29.9195 21.5306 29.7222 21.5316C26.339 21.5334 22.9559 21.5334 19.5736 21.5334L19.5727 21.5325Z" fill="#51556F"/>
<path d="M24.1047 11.0014C26.0871 11.0014 28.0704 10.9977 30.0528 11.0024C31.2207 11.0052 31.9099 12.0497 31.4751 13.1409C31.2385 13.7337 30.7364 14.0507 29.9995 14.0517C27.1073 14.0545 24.215 14.0535 21.3219 14.0535C20.2718 14.0535 19.2226 14.0582 18.1725 14.0517C17.0242 14.0442 16.35 13.1512 16.6464 12.0431C16.8204 11.3913 17.3449 11.0042 18.0855 11.0033C20.0913 10.9995 22.098 11.0014 24.1038 11.0014H24.1047Z" fill="#51556F"/>
<path d="M15.1215 28.9681C13.1391 28.9681 11.1558 28.9719 9.17336 28.9672C8.04004 28.9644 7.35836 28.0199 7.69779 26.938C7.8979 26.3003 8.42997 25.9216 9.16682 25.9188C10.5779 25.9123 11.9889 25.916 13.4 25.916C15.9537 25.916 18.5084 25.9113 21.0621 25.9188C22.2001 25.9216 22.8818 26.8586 22.5582 27.947C22.3665 28.5932 21.8616 28.9653 21.1388 28.9672C19.133 28.9719 17.1272 28.9691 15.1205 28.9691L15.1215 28.9681Z" fill="#51556F"/>
</g>
</svg>
