<svg width="40" height="40" viewBox="0 0 40 40" fill="none" xmlns="http://www.w3.org/2000/svg">
<path opacity="0.5" d="M20.0968 32.4927C18.9148 32.4927 17.7333 32.4953 16.5513 32.4927C13.8541 32.485 11.5585 30.5525 11.0853 27.8938C10.6057 25.1998 12.1912 22.5174 14.7794 21.6459C15.3737 21.4455 15.9852 21.345 16.6134 21.345C18.9289 21.3462 21.245 21.3424 23.5605 21.3462C26.4362 21.3507 28.7837 23.4414 29.1302 26.3006C29.492 29.291 27.3295 32.0598 24.334 32.4517C23.8473 32.5151 23.3613 32.4882 22.8753 32.4921C21.9494 32.4991 21.0228 32.494 20.0962 32.494L20.0968 32.4927Z" fill="#51556F"/>
<path opacity="0.5" d="M19.5864 8.49589C22.6632 8.49781 25.1637 11.0067 25.1586 14.0854C25.1535 17.1578 22.6427 19.6507 19.5556 19.6443C16.3974 19.6379 13.9974 17.0137 14 14.0662C14.0019 11.0957 16.4327 8.48436 19.587 8.49589H19.5864Z" fill="#51556F"/>
</svg>
