<svg width="80" height="80" viewBox="0 0 80 80" fill="none" xmlns="http://www.w3.org/2000/svg">
<g filter="url(#filter0_dd_609_2255)">
<rect x="10" y="10" width="60" height="60" rx="30" fill="#F4F5FC"/>
</g>
<g opacity="0.5">
<path d="M51.2502 37.7499C51.2501 37.175 51.0848 36.6123 50.7739 36.1287C50.4631 35.6451 50.0199 35.2609 49.497 35.022C48.9741 34.7831 48.3936 34.6994 47.8245 34.781C47.2554 34.8626 46.7218 35.1059 46.2871 35.4821C44.7168 34.6477 42.8408 34.1434 40.8815 34.0262L41.368 31.104L43.0293 31.359C43.1135 31.883 43.3804 32.3604 43.7826 32.7067C44.1848 33.0531 44.6965 33.246 45.2272 33.2516C45.758 33.2571 46.2736 33.0749 46.6829 32.737C47.0923 32.3992 47.369 31.9275 47.4642 31.4053C47.5594 30.8832 47.467 30.3442 47.2032 29.8836C46.9394 29.423 46.5213 29.0705 46.0228 28.8883C45.5243 28.7062 44.9774 28.7062 44.4788 28.8883C43.9803 29.0703 43.5621 29.4228 43.2983 29.8834L40.8608 29.5084C40.6658 29.4783 40.4668 29.5263 40.307 29.6419C40.1471 29.7576 40.0392 29.9316 40.0068 30.1262L39.3627 34.0149C37.3152 34.1031 35.3483 34.6131 33.7133 35.4821C33.1162 34.9777 32.3459 34.7263 31.5662 34.7813C30.7865 34.8363 30.0591 35.1935 29.5387 35.7767C29.0184 36.36 28.7462 37.1233 28.7802 37.9042C28.8141 38.6851 29.1515 39.4219 29.7205 39.9577C29.5747 40.4588 29.5005 40.9781 29.5002 41.4999C29.5002 43.5559 30.6252 45.4702 32.6793 46.8896C34.6452 48.2499 37.2449 48.9999 40.0002 48.9999C42.7555 48.9999 45.3552 48.2499 47.3211 46.8896C49.3752 45.4702 50.5002 43.5559 50.5002 41.4999C50.4999 40.9781 50.4257 40.4588 50.2799 39.9577C50.5849 39.6763 50.8284 39.335 50.9954 38.9551C51.1624 38.5752 51.2491 38.1649 51.2502 37.7499ZM45.2502 30.2499C45.3985 30.2499 45.5435 30.2939 45.6669 30.3763C45.7902 30.4587 45.8863 30.5759 45.9431 30.7129C45.9999 30.85 46.0147 31.0008 45.9858 31.1463C45.9569 31.2917 45.8854 31.4254 45.7805 31.5303C45.6756 31.6352 45.542 31.7066 45.3965 31.7355C45.251 31.7645 45.1002 31.7496 44.9632 31.6928C44.8261 31.6361 44.709 31.5399 44.6266 31.4166C44.5442 31.2933 44.5002 31.1483 44.5002 30.9999C44.5002 30.801 44.5792 30.6103 44.7199 30.4696C44.8605 30.329 45.0513 30.2499 45.2502 30.2499ZM34.7502 39.9999C34.7502 39.7033 34.8382 39.4133 35.003 39.1666C35.1678 38.9199 35.4021 38.7276 35.6762 38.6141C35.9503 38.5006 36.2519 38.4709 36.5428 38.5288C36.8338 38.5866 37.1011 38.7295 37.3109 38.9393C37.5206 39.1491 37.6635 39.4163 37.7214 39.7073C37.7793 39.9983 37.7496 40.2999 37.636 40.574C37.5225 40.848 37.3302 41.0823 37.0836 41.2471C36.8369 41.412 36.5469 41.4999 36.2502 41.4999C35.8524 41.4999 35.4708 41.3419 35.1895 41.0606C34.9082 40.7793 34.7502 40.3978 34.7502 39.9999ZM43.3518 45.1627C42.3197 45.7112 41.1689 45.998 40.0002 45.998C38.8315 45.998 37.6807 45.7112 36.6486 45.1627C36.5616 45.1166 36.4845 45.0537 36.4218 44.9778C36.359 44.9018 36.3118 44.8142 36.2829 44.72C36.254 44.6258 36.244 44.5269 36.2533 44.4288C36.2627 44.3307 36.2912 44.2354 36.3374 44.1484C36.3836 44.0613 36.4464 43.9842 36.5224 43.9215C36.5983 43.8587 36.6859 43.8116 36.7801 43.7827C36.8743 43.7538 36.9733 43.7437 37.0714 43.753C37.1694 43.7624 37.2647 43.791 37.3518 43.8371C38.1672 44.2707 39.0767 44.4974 40.0002 44.4974C40.9237 44.4974 41.8332 44.2707 42.6486 43.8371C42.7357 43.791 42.831 43.7624 42.929 43.753C43.0271 43.7437 43.1261 43.7538 43.2203 43.7827C43.3145 43.8116 43.4021 43.8587 43.478 43.9215C43.554 43.9842 43.6168 44.0613 43.663 44.1484C43.7092 44.2354 43.7378 44.3307 43.7471 44.4288C43.7564 44.5269 43.7464 44.6258 43.7175 44.72C43.6886 44.8142 43.6414 44.9018 43.5787 44.9778C43.5159 45.0537 43.4388 45.1166 43.3518 45.1627ZM43.7502 41.4999C43.4535 41.4999 43.1635 41.412 42.9168 41.2471C42.6702 41.0823 42.4779 40.848 42.3644 40.574C42.2509 40.2999 42.2211 39.9983 42.279 39.7073C42.3369 39.4163 42.4798 39.1491 42.6895 38.9393C42.8993 38.7295 43.1666 38.5866 43.4576 38.5288C43.7485 38.4709 44.0501 38.5006 44.3242 38.6141C44.5983 38.7276 44.8326 38.9199 44.9974 39.1666C45.1622 39.4133 45.2502 39.7033 45.2502 39.9999C45.2502 40.3978 45.0922 40.7793 44.8109 41.0606C44.5296 41.3419 44.148 41.4999 43.7502 41.4999Z" fill="#007EFA"/>
</g>
<defs>
<filter id="filter0_dd_609_2255" x="0" y="0" width="78" height="78" filterUnits="userSpaceOnUse" color-interpolation-filters="sRGB">
<feFlood flood-opacity="0" result="BackgroundImageFix"/>
<feColorMatrix in="SourceAlpha" type="matrix" values="0 0 0 0 0 0 0 0 0 0 0 0 0 0 0 0 0 0 127 0" result="hardAlpha"/>
<feOffset dx="2" dy="2"/>
<feGaussianBlur stdDeviation="3"/>
<feComposite in2="hardAlpha" operator="out"/>
<feColorMatrix type="matrix" values="0 0 0 0 0 0 0 0 0 0 0 0 0 0 0 0 0 0 0.25 0"/>
<feBlend mode="normal" in2="BackgroundImageFix" result="effect1_dropShadow_609_2255"/>
<feColorMatrix in="SourceAlpha" type="matrix" values="0 0 0 0 0 0 0 0 0 0 0 0 0 0 0 0 0 0 127 0" result="hardAlpha"/>
<feOffset dx="-2" dy="-2"/>
<feGaussianBlur stdDeviation="4"/>
<feComposite in2="hardAlpha" operator="out"/>
<feColorMatrix type="matrix" values="0 0 0 0 1 0 0 0 0 1 0 0 0 0 1 0 0 0 0.8 0"/>
<feBlend mode="normal" in2="effect1_dropShadow_609_2255" result="effect2_dropShadow_609_2255"/>
<feBlend mode="normal" in="SourceGraphic" in2="effect2_dropShadow_609_2255" result="shape"/>
</filter>
</defs>
</svg>
