<svg width="80" height="80" viewBox="0 0 80 80" fill="none" xmlns="http://www.w3.org/2000/svg">
<g filter="url(#filter0_dd_617_1269)">
<rect x="10" y="10" width="60" height="60" rx="30" fill="#F4F5FC"/>
</g>
<g opacity="0.5" clip-path="url(#clip0_617_1269)">
<path d="M39.0189 28.0469H41.0737C41.5409 28.123 42.0149 28.1555 42.4765 28.2666C47.148 29.3933 50.1933 32.2534 51.6025 36.8513C51.8195 37.5597 51.9119 38.2938 51.9998 39.0272V40.9897C51.9543 41.3287 51.92 41.6689 51.8626 42.0059C50.9325 47.4765 46.3615 51.6149 40.8323 51.9745C39.1031 52.0868 37.4202 51.8378 35.7952 51.2198C30.3926 49.1637 27.1739 43.5621 28.2805 37.8606C29.2149 33.0474 32.1604 29.9395 36.8232 28.4607C37.5362 28.2348 38.2791 28.1436 39.0189 28.0469ZM38.2953 34.3176C37.0478 34.3089 35.8089 34.4075 34.5788 34.6098C33.8958 34.7221 33.2146 34.8538 32.5597 35.081C31.9608 35.2889 31.6795 35.9037 31.8691 36.5248C32.0376 37.0754 32.5834 37.3787 33.1841 37.2445C33.5783 37.1565 33.9669 37.0398 34.3624 36.9586C36.0716 36.6091 37.7969 36.5204 39.5373 36.6203C41.0568 36.7077 42.552 36.9299 44.0185 37.3344C45.1027 37.6334 46.1394 38.0472 47.1181 38.6096C47.7481 38.9717 48.4499 38.7239 48.7013 38.0791C48.9152 37.5304 48.7119 36.9505 48.1804 36.6278C47.5866 36.2676 46.9584 35.9768 46.3122 35.7252C43.7341 34.7202 41.0462 34.3363 38.2953 34.3176ZM38.1406 38.4299C37.2436 38.4218 36.3541 38.4979 35.469 38.6271C34.7535 38.7314 34.0461 38.8806 33.3519 39.0847C32.9252 39.2101 32.6651 39.5066 32.6358 39.8805C32.5759 40.6464 33.1211 41.104 33.869 40.8986C34.7254 40.6633 35.5912 40.496 36.4758 40.4042C38.3839 40.2057 40.2615 40.3687 42.1166 40.8381C43.3904 41.1601 44.5899 41.6639 45.7352 42.3099C46.2124 42.579 46.7077 42.4454 46.9603 42.0303C47.2266 41.5927 47.1081 40.9997 46.6871 40.697C46.5673 40.6108 46.4382 40.5378 46.3091 40.466C43.769 39.0522 41.025 38.4598 38.1413 38.4305L38.1406 38.4299ZM38.0982 42.3517C36.7271 42.3405 35.2357 42.549 33.7586 42.8723C33.2926 42.9747 33.0331 43.3573 33.1273 43.7787C33.2333 44.2518 33.5939 44.4597 34.1017 44.3436C35.716 43.9747 37.3453 43.7799 39.0058 43.8642C40.4992 43.9397 41.932 44.2468 43.2875 44.886C43.7303 45.0951 44.1589 45.3367 44.6068 45.5339C45.132 45.7655 45.6135 45.4172 45.5936 44.8436C45.5836 44.5546 45.4426 44.3355 45.2112 44.1838C44.971 44.0265 44.7197 43.8835 44.4639 43.7531C42.5109 42.7537 40.4243 42.3443 38.0982 42.3517Z" fill="#007EFA"/>
</g>
<defs>
<filter id="filter0_dd_617_1269" x="0" y="0" width="78" height="78" filterUnits="userSpaceOnUse" color-interpolation-filters="sRGB">
<feFlood flood-opacity="0" result="BackgroundImageFix"/>
<feColorMatrix in="SourceAlpha" type="matrix" values="0 0 0 0 0 0 0 0 0 0 0 0 0 0 0 0 0 0 127 0" result="hardAlpha"/>
<feOffset dx="2" dy="2"/>
<feGaussianBlur stdDeviation="3"/>
<feComposite in2="hardAlpha" operator="out"/>
<feColorMatrix type="matrix" values="0 0 0 0 0 0 0 0 0 0 0 0 0 0 0 0 0 0 0.25 0"/>
<feBlend mode="normal" in2="BackgroundImageFix" result="effect1_dropShadow_617_1269"/>
<feColorMatrix in="SourceAlpha" type="matrix" values="0 0 0 0 0 0 0 0 0 0 0 0 0 0 0 0 0 0 127 0" result="hardAlpha"/>
<feOffset dx="-2" dy="-2"/>
<feGaussianBlur stdDeviation="4"/>
<feComposite in2="hardAlpha" operator="out"/>
<feColorMatrix type="matrix" values="0 0 0 0 1 0 0 0 0 1 0 0 0 0 1 0 0 0 0.8 0"/>
<feBlend mode="normal" in2="effect1_dropShadow_617_1269" result="effect2_dropShadow_617_1269"/>
<feBlend mode="normal" in="SourceGraphic" in2="effect2_dropShadow_617_1269" result="shape"/>
</filter>
<clipPath id="clip0_617_1269">
<rect width="24" height="24" fill="white" transform="translate(28 28)"/>
</clipPath>
</defs>
</svg>
