<svg width="80" height="80" viewBox="0 0 80 80" fill="none" xmlns="http://www.w3.org/2000/svg">
<g filter="url(#filter0_dd_609_2114)">
<rect x="10" y="10" width="60" height="60" rx="16" fill="#F4F5FC"/>
<g filter="url(#filter1_f_609_2114)">
<rect x="14.5" y="14.5" width="51" height="51" rx="11.5" stroke="#ED1F96"/>
</g>
</g>
<path d="M50.46 34C49.69 34.35 48.86 34.58 48 34.69C48.88 34.16 49.56 33.32 49.88 32.31C49.05 32.81 48.13 33.16 47.16 33.36C46.37 32.5 45.26 32 44 32C41.65 32 39.73 33.92 39.73 36.29C39.73 36.63 39.77 36.96 39.84 37.27C36.28 37.09 33.11 35.38 31 32.79C30.63 33.42 30.42 34.16 30.42 34.94C30.42 36.43 31.17 37.75 32.33 38.5C31.62 38.5 30.96 38.3 30.38 38V38.03C30.38 40.11 31.86 41.85 33.82 42.24C33.1908 42.4122 32.5301 42.4362 31.89 42.31C32.1616 43.1625 32.6936 43.9084 33.4111 44.4429C34.1285 44.9775 34.9955 45.2737 35.89 45.29C34.3737 46.4904 32.494 47.1393 30.56 47.13C30.22 47.13 29.88 47.11 29.54 47.07C31.44 48.29 33.7 49 36.12 49C44 49 48.33 42.46 48.33 36.79C48.33 36.6 48.33 36.42 48.32 36.23C49.16 35.63 49.88 34.87 50.46 34Z" fill="#1976D2"/>
<defs>
<filter id="filter0_dd_609_2114" x="0" y="0" width="78" height="78" filterUnits="userSpaceOnUse" color-interpolation-filters="sRGB">
<feFlood flood-opacity="0" result="BackgroundImageFix"/>
<feColorMatrix in="SourceAlpha" type="matrix" values="0 0 0 0 0 0 0 0 0 0 0 0 0 0 0 0 0 0 127 0" result="hardAlpha"/>
<feOffset dx="2" dy="2"/>
<feGaussianBlur stdDeviation="3"/>
<feComposite in2="hardAlpha" operator="out"/>
<feColorMatrix type="matrix" values="0 0 0 0 0 0 0 0 0 0 0 0 0 0 0 0 0 0 0.25 0"/>
<feBlend mode="normal" in2="BackgroundImageFix" result="effect1_dropShadow_609_2114"/>
<feColorMatrix in="SourceAlpha" type="matrix" values="0 0 0 0 0 0 0 0 0 0 0 0 0 0 0 0 0 0 127 0" result="hardAlpha"/>
<feOffset dx="-2" dy="-2"/>
<feGaussianBlur stdDeviation="4"/>
<feComposite in2="hardAlpha" operator="out"/>
<feColorMatrix type="matrix" values="0 0 0 0 1 0 0 0 0 1 0 0 0 0 1 0 0 0 0.8 0"/>
<feBlend mode="normal" in2="effect1_dropShadow_609_2114" result="effect2_dropShadow_609_2114"/>
<feBlend mode="normal" in="SourceGraphic" in2="effect2_dropShadow_609_2114" result="shape"/>
</filter>
<filter id="filter1_f_609_2114" x="12" y="12" width="56" height="56" filterUnits="userSpaceOnUse" color-interpolation-filters="sRGB">
<feFlood flood-opacity="0" result="BackgroundImageFix"/>
<feBlend mode="normal" in="SourceGraphic" in2="BackgroundImageFix" result="shape"/>
<feGaussianBlur stdDeviation="1" result="effect1_foregroundBlur_609_2114"/>
</filter>
</defs>
</svg>
