<svg width="360" height="576" viewBox="0 0 360 576" fill="none" xmlns="http://www.w3.org/2000/svg">
<g clip-path="url(#clip0_211_3775)">
<path fill-rule="evenodd" clip-rule="evenodd" d="M298.943 270C298.943 273.897 302.103 277.057 306 277.057C309.897 277.057 313.057 273.897 313.057 270C313.057 266.103 309.897 262.943 306 262.943C302.103 262.943 298.943 266.103 298.943 270ZM301.06 270C301.06 272.728 303.272 274.94 306 274.94C308.728 274.94 310.94 272.728 310.94 270C310.94 267.272 308.728 265.06 306 265.06C303.272 265.06 301.06 267.272 301.06 270Z" fill="#68ADF2"/>
<path fill-rule="evenodd" clip-rule="evenodd" d="M298.943 306C298.943 309.897 302.103 313.057 306 313.057C309.897 313.057 313.057 309.897 313.057 306C313.057 302.103 309.897 298.943 306 298.943C302.103 298.943 298.943 302.103 298.943 306ZM301.06 306C301.06 308.728 303.272 310.94 306 310.94C308.728 310.94 310.94 308.728 310.94 306C310.94 303.272 308.728 301.06 306 301.06C303.272 301.06 301.06 303.272 301.06 306Z" fill="#59CDFF"/>
<path fill-rule="evenodd" clip-rule="evenodd" d="M300.844 486C300.844 488.847 303.153 491.156 306 491.156C308.847 491.156 311.156 488.847 311.156 486C311.156 483.153 308.847 480.844 306 480.844C303.153 480.844 300.844 483.153 300.844 486ZM302.391 486C302.391 487.993 304.007 489.609 306 489.609C307.993 489.609 309.609 487.993 309.609 486C309.609 484.007 307.993 482.391 306 482.391C304.007 482.391 302.391 484.007 302.391 486Z" fill="#69ADF2"/>
<path fill-rule="evenodd" clip-rule="evenodd" d="M262.252 162C262.252 166.279 265.721 169.748 270 169.748C274.279 169.748 277.748 166.279 277.748 162C277.748 157.721 274.279 154.252 270 154.252C265.721 154.252 262.252 157.721 262.252 162ZM264.576 162C264.576 164.995 267.004 167.424 270 167.424C272.995 167.424 275.424 164.995 275.424 162C275.424 159.004 272.995 156.576 270 156.576C267.004 156.576 264.576 159.004 264.576 162Z" fill="#86DBFF"/>
<path fill-rule="evenodd" clip-rule="evenodd" d="M261.215 198C261.215 202.852 265.148 206.785 270 206.785C274.852 206.785 278.785 202.852 278.785 198C278.785 193.148 274.852 189.215 270 189.215C265.148 189.215 261.215 193.148 261.215 198ZM263.85 198C263.85 201.396 266.604 204.15 270 204.15C273.396 204.15 276.15 201.396 276.15 198C276.15 194.604 273.396 191.85 270 191.85C266.604 191.85 263.85 194.604 263.85 198Z" fill="#F261B5"/>
<path fill-rule="evenodd" clip-rule="evenodd" d="M260.183 233.997C260.183 239.421 264.579 243.817 270.003 243.817C275.426 243.817 279.822 239.421 279.822 233.997C279.822 228.574 275.426 224.178 270.003 224.178C264.579 224.178 260.183 228.574 260.183 233.997ZM263.129 233.997C263.129 237.794 266.206 240.871 270.003 240.871C273.799 240.871 276.876 237.794 276.876 233.997C276.876 230.201 273.799 227.124 270.003 227.124C266.206 227.124 263.129 230.201 263.129 233.997Z" fill="#C0DBF8"/>
<path fill-rule="evenodd" clip-rule="evenodd" d="M259.491 305.997C259.491 311.803 264.197 316.509 270.002 316.509C275.807 316.509 280.513 311.803 280.513 305.997C280.513 300.192 275.807 295.486 270.002 295.486C264.197 295.486 259.491 300.192 259.491 305.997ZM262.645 305.997C262.645 310.061 265.939 313.355 270.002 313.355C274.066 313.355 277.36 310.061 277.36 305.997C277.36 301.934 274.066 298.64 270.002 298.64C265.939 298.64 262.645 301.934 262.645 305.997Z" fill="#8FC0F4"/>
<path fill-rule="evenodd" clip-rule="evenodd" d="M225.733 126C225.733 130.566 229.434 134.267 234 134.267C238.565 134.267 242.267 130.566 242.267 126C242.267 121.435 238.565 117.733 234 117.733C229.434 117.733 225.733 121.435 225.733 126ZM228.213 126C228.213 129.196 230.804 131.787 234 131.787C237.196 131.787 239.787 129.196 239.787 126C239.787 122.804 237.196 120.213 234 120.213C230.804 120.213 228.213 122.804 228.213 126Z" fill="#A0E3FF"/>
<path fill-rule="evenodd" clip-rule="evenodd" d="M221.072 233.998C221.072 241.139 226.861 246.928 234.002 246.928C241.144 246.928 246.933 241.139 246.933 233.998C246.933 226.856 241.144 221.067 234.002 221.067C226.861 221.067 221.072 226.856 221.072 233.998ZM224.951 233.998C224.951 238.997 229.003 243.049 234.002 243.049C239.002 243.049 243.054 238.997 243.054 233.998C243.054 228.998 239.002 224.946 234.002 224.946C229.003 224.946 224.951 228.998 224.951 233.998Z" fill="#6CAFF3"/>
<path fill-rule="evenodd" clip-rule="evenodd" d="M220.035 269.997C220.035 277.712 226.288 283.965 234.003 283.965C241.717 283.965 247.97 277.712 247.97 269.997C247.97 262.283 241.717 256.03 234.003 256.03C226.288 256.03 220.035 262.283 220.035 269.997ZM224.225 269.997C224.225 275.397 228.603 279.775 234.003 279.775C239.403 279.775 243.78 275.397 243.78 269.997C243.78 264.597 239.403 260.22 234.003 260.22C228.603 260.22 224.225 264.597 224.225 269.997Z" fill="#F588C7"/>
<path fill-rule="evenodd" clip-rule="evenodd" d="M220.035 305.997C220.035 313.712 226.288 319.965 234.003 319.965C241.717 319.965 247.97 313.712 247.97 305.997C247.97 298.283 241.717 292.03 234.003 292.03C226.288 292.03 220.035 298.283 220.035 305.997ZM224.225 305.997C224.225 311.397 228.603 315.775 234.003 315.775C239.403 315.775 243.78 311.397 243.78 305.997C243.78 300.597 239.403 296.22 234.003 296.22C228.603 296.22 224.225 300.597 224.225 305.997Z" fill="#F14FAD"/>
<path fill-rule="evenodd" clip-rule="evenodd" d="M221.072 377.998C221.072 385.139 226.861 390.928 234.002 390.928C241.144 390.928 246.933 385.139 246.933 377.998C246.933 370.856 241.144 365.067 234.002 365.067C226.861 365.067 221.072 370.856 221.072 377.998ZM224.951 377.998C224.951 382.997 229.003 387.049 234.002 387.049C239.002 387.049 243.054 382.997 243.054 377.998C243.054 372.998 239.002 368.946 234.002 368.946C229.003 368.946 224.951 372.998 224.951 377.998Z" fill="#A1CCF7"/>
<path fill-rule="evenodd" clip-rule="evenodd" d="M222.627 413.998C222.627 420.28 227.72 425.373 234.002 425.373C240.285 425.373 245.378 420.28 245.378 413.998C245.378 407.715 240.285 402.622 234.002 402.622C227.72 402.622 222.627 407.715 222.627 413.998ZM226.04 413.998C226.04 418.395 229.605 421.96 234.002 421.96C238.4 421.96 241.965 418.395 241.965 413.998C241.965 409.6 238.4 406.035 234.002 406.035C229.605 406.035 226.04 409.6 226.04 413.998Z" fill="#F474BE"/>
<path fill-rule="evenodd" clip-rule="evenodd" d="M224.183 449.997C224.183 455.421 228.579 459.817 234.003 459.817C239.426 459.817 243.822 455.421 243.822 449.997C243.822 444.574 239.426 440.178 234.003 440.178C228.579 440.178 224.183 444.574 224.183 449.997ZM227.129 449.997C227.129 453.794 230.206 456.871 234.003 456.871C237.799 456.871 240.876 453.794 240.876 449.997C240.876 446.201 237.799 443.124 234.003 443.124C230.206 443.124 227.129 446.201 227.129 449.997Z" fill="#CDE4FB"/>
<path fill-rule="evenodd" clip-rule="evenodd" d="M227.289 522C227.289 525.706 230.294 528.711 234 528.711C237.707 528.711 240.711 525.706 240.711 522C240.711 518.293 237.707 515.289 234 515.289C230.294 515.289 227.289 518.293 227.289 522ZM229.302 522C229.302 524.594 231.406 526.698 234 526.698C236.595 526.698 238.698 524.594 238.698 522C238.698 519.405 236.595 517.302 234 517.302C231.406 517.302 229.302 519.405 229.302 522Z" fill="#C9E2FA"/>
<path fill-rule="evenodd" clip-rule="evenodd" d="M186.109 161.998C186.109 168.566 191.434 173.891 198.002 173.891C204.571 173.891 209.896 168.566 209.896 161.998C209.896 155.429 204.571 150.104 198.002 150.104C191.434 150.104 186.109 155.429 186.109 161.998ZM189.677 161.998C189.677 166.596 193.404 170.323 198.002 170.323C202.601 170.323 206.328 166.596 206.328 161.998C206.328 157.399 202.601 153.672 198.002 153.672C193.404 153.672 189.677 157.399 189.677 161.998Z" fill="#9DC8F5"/>
<path fill-rule="evenodd" clip-rule="evenodd" d="M184.035 197.997C184.035 205.712 190.288 211.965 198.003 211.965C205.717 211.965 211.97 205.712 211.97 197.997C211.97 190.283 205.717 184.03 198.003 184.03C190.288 184.03 184.035 190.283 184.035 197.997ZM188.225 197.997C188.225 203.397 192.603 207.775 198.003 207.775C203.403 207.775 207.78 203.397 207.78 197.997C207.78 192.597 203.403 188.22 198.003 188.22C192.603 188.22 188.225 192.597 188.225 197.997Z" fill="#A5CEF7"/>
<path fill-rule="evenodd" clip-rule="evenodd" d="M181.956 234.002C181.956 242.862 189.138 250.044 197.998 250.044C206.857 250.044 214.04 242.862 214.04 234.002C214.04 225.143 206.857 217.96 197.998 217.96C189.138 217.96 181.956 225.143 181.956 234.002ZM186.768 234.002C186.768 240.204 191.796 245.232 197.998 245.232C204.199 245.232 209.227 240.204 209.227 234.002C209.227 227.801 204.199 222.773 197.998 222.773C191.796 222.773 186.768 227.801 186.768 234.002Z" fill="#6BAFF2"/>
<path fill-rule="evenodd" clip-rule="evenodd" d="M180.573 270.002C180.573 279.626 188.374 287.427 197.997 287.427C207.621 287.427 215.422 279.626 215.422 270.002C215.422 260.379 207.621 252.578 197.997 252.578C188.374 252.578 180.573 260.379 180.573 270.002ZM185.8 270.002C185.8 276.739 191.261 282.2 197.997 282.2C204.734 282.2 210.195 276.739 210.195 270.002C210.195 263.266 204.734 257.805 197.997 257.805C191.261 257.805 185.8 263.266 185.8 270.002Z" fill="#C4DEF9"/>
<path fill-rule="evenodd" clip-rule="evenodd" d="M180.573 306.002C180.573 315.626 188.374 323.427 197.997 323.427C207.621 323.427 215.422 315.626 215.422 306.002C215.422 296.379 207.621 288.578 197.997 288.578C188.374 288.578 180.573 296.379 180.573 306.002ZM185.8 306.002C185.8 312.739 191.261 318.2 197.997 318.2C204.734 318.2 210.195 312.739 210.195 306.002C210.195 299.266 204.734 293.805 197.997 293.805C191.261 293.805 185.8 299.266 185.8 306.002Z" fill="#F03FA5"/>
<path fill-rule="evenodd" clip-rule="evenodd" d="M180.573 342.002C180.573 351.626 188.374 359.427 197.997 359.427C207.621 359.427 215.422 351.626 215.422 342.002C215.422 332.379 207.621 324.578 197.997 324.578C188.374 324.578 180.573 332.379 180.573 342.002ZM185.8 342.002C185.8 348.739 191.261 354.2 197.997 354.2C204.734 354.2 210.195 348.739 210.195 342.002C210.195 335.266 204.734 329.805 197.997 329.805C191.261 329.805 185.8 335.266 185.8 342.002Z" fill="#DBF4FF"/>
<path fill-rule="evenodd" clip-rule="evenodd" d="M181.956 378.002C181.956 386.862 189.138 394.044 197.998 394.044C206.857 394.044 214.04 386.862 214.04 378.002C214.04 369.143 206.857 361.96 197.998 361.96C189.138 361.96 181.956 369.143 181.956 378.002ZM186.768 378.002C186.768 384.204 191.796 389.232 197.998 389.232C204.199 389.232 209.227 384.204 209.227 378.002C209.227 371.801 204.199 366.773 197.998 366.773C191.796 366.773 186.768 371.801 186.768 378.002Z" fill="#63D0FF"/>
<path fill-rule="evenodd" clip-rule="evenodd" d="M184.035 413.997C184.035 421.712 190.288 427.965 198.003 427.965C205.717 427.965 211.97 421.712 211.97 413.997C211.97 406.283 205.717 400.03 198.003 400.03C190.288 400.03 184.035 406.283 184.035 413.997ZM188.225 413.997C188.225 419.397 192.603 423.775 198.003 423.775C203.403 423.775 207.78 419.397 207.78 413.997C207.78 408.597 203.403 404.22 198.003 404.22C192.603 404.22 188.225 408.597 188.225 413.997Z" fill="#D4F2FF"/>
<path fill-rule="evenodd" clip-rule="evenodd" d="M186.109 449.998C186.109 456.566 191.434 461.891 198.002 461.891C204.571 461.891 209.896 456.566 209.896 449.998C209.896 443.429 204.571 438.104 198.002 438.104C191.434 438.104 186.109 443.429 186.109 449.998ZM189.677 449.998C189.677 454.596 193.404 458.323 198.002 458.323C202.601 458.323 206.328 454.596 206.328 449.998C206.328 445.399 202.601 441.672 198.002 441.672C193.404 441.672 189.677 445.399 189.677 449.998Z" fill="#BEECFF"/>
<path fill-rule="evenodd" clip-rule="evenodd" d="M188.183 485.997C188.183 491.421 192.579 495.817 198.002 495.817C203.426 495.817 207.822 491.421 207.822 485.997C207.822 480.574 203.426 476.178 198.002 476.178C192.579 476.178 188.183 480.574 188.183 485.997ZM191.128 485.997C191.128 489.794 194.206 492.871 198.002 492.871C201.799 492.871 204.876 489.794 204.876 485.997C204.876 482.201 201.799 479.124 198.002 479.124C194.206 479.124 191.128 482.201 191.128 485.997Z" fill="#B1E8FF"/>
<path fill-rule="evenodd" clip-rule="evenodd" d="M147.6 198C147.6 205.953 154.047 212.4 162 212.4C169.953 212.4 176.4 205.953 176.4 198C176.4 190.047 169.953 183.6 162 183.6C154.047 183.6 147.6 190.047 147.6 198ZM151.92 198C151.92 203.567 156.433 208.08 162 208.08C167.567 208.08 172.08 203.567 172.08 198C172.08 192.433 167.567 187.92 162 187.92C156.433 187.92 151.92 192.433 151.92 198Z" fill="#B4D4F7"/>
<path fill-rule="evenodd" clip-rule="evenodd" d="M144 270C144 279.941 152.059 288 162 288C171.941 288 180 279.941 180 270C180 260.059 171.941 252 162 252C152.059 252 144 260.059 144 270ZM149.4 270C149.4 276.959 155.041 282.6 162 282.6C168.959 282.6 174.6 276.959 174.6 270C174.6 263.041 168.959 257.4 162 257.4C155.041 257.4 149.4 263.041 149.4 270Z" fill="#E4F0FD"/>
<path fill-rule="evenodd" clip-rule="evenodd" d="M144 306C144 315.941 152.059 324 162 324C171.941 324 180 315.941 180 306C180 296.059 171.941 288 162 288C152.059 288 144 296.059 144 306ZM149.4 306C149.4 312.959 155.041 318.6 162 318.6C168.959 318.6 174.6 312.959 174.6 306C174.6 299.041 168.959 293.4 162 293.4C155.041 293.4 149.4 299.041 149.4 306Z" fill="#64ABF2"/>
<path fill-rule="evenodd" clip-rule="evenodd" d="M144 342C144 351.941 152.059 360 162 360C171.941 360 180 351.941 180 342C180 332.059 171.941 324 162 324C152.059 324 144 332.059 144 342ZM149.4 342C149.4 348.959 155.041 354.6 162 354.6C168.959 354.6 174.6 348.959 174.6 342C174.6 335.041 168.959 329.4 162 329.4C155.041 329.4 149.4 335.041 149.4 342Z" fill="#90DEFF"/>
<path fill-rule="evenodd" clip-rule="evenodd" d="M145.437 378.002C145.437 387.148 152.852 394.563 161.998 394.563C171.144 394.563 178.558 387.148 178.558 378.002C178.558 368.856 171.144 361.442 161.998 361.442C152.852 361.442 145.437 368.856 145.437 378.002ZM150.405 378.002C150.405 384.405 155.595 389.595 161.998 389.595C168.4 389.595 173.59 384.405 173.59 378.002C173.59 371.6 168.4 366.41 161.998 366.41C155.595 366.41 150.405 371.6 150.405 378.002Z" fill="#96C4F4"/>
<path fill-rule="evenodd" clip-rule="evenodd" d="M147.6 414C147.6 421.953 154.047 428.4 162 428.4C169.953 428.4 176.4 421.953 176.4 414C176.4 406.047 169.953 399.6 162 399.6C154.047 399.6 147.6 406.047 147.6 414ZM151.92 414C151.92 419.567 156.433 424.08 162 424.08C167.567 424.08 172.08 419.567 172.08 414C172.08 408.433 167.567 403.92 162 403.92C156.433 403.92 151.92 408.433 151.92 414Z" fill="#EDFAFF"/>
<path fill-rule="evenodd" clip-rule="evenodd" d="M154.079 522C154.079 526.374 157.625 529.921 162 529.921C166.375 529.921 169.921 526.374 169.921 522C169.921 517.625 166.375 514.079 162 514.079C157.625 514.079 154.079 517.625 154.079 522ZM156.455 522C156.455 525.062 158.938 527.545 162 527.545C165.062 527.545 167.545 525.062 167.545 522C167.545 518.938 165.062 516.455 162 516.455C158.938 516.455 156.455 518.938 156.455 522Z" fill="#C2DEFA"/>
<path fill-rule="evenodd" clip-rule="evenodd" d="M116.183 125.997C116.183 131.421 120.579 135.817 126.003 135.817C131.426 135.817 135.822 131.421 135.822 125.997C135.822 120.574 131.426 116.178 126.003 116.178C120.579 116.178 116.183 120.574 116.183 125.997ZM119.129 125.997C119.129 129.794 122.206 132.871 126.003 132.871C129.799 132.871 132.876 129.794 132.876 125.997C132.876 122.201 129.799 119.124 126.003 119.124C122.206 119.124 119.129 122.201 119.129 125.997Z" fill="#FEF3F9"/>
<path fill-rule="evenodd" clip-rule="evenodd" d="M114.109 161.998C114.109 168.566 119.434 173.891 126.002 173.891C132.571 173.891 137.896 168.566 137.896 161.998C137.896 155.429 132.571 150.104 126.002 150.104C119.434 150.104 114.109 155.429 114.109 161.998ZM117.677 161.998C117.677 166.596 121.404 170.323 126.002 170.323C130.601 170.323 134.328 166.596 134.328 161.998C134.328 157.399 130.601 153.672 126.002 153.672C121.404 153.672 117.677 157.399 117.677 161.998Z" fill="#FFFAFD"/>
<path fill-rule="evenodd" clip-rule="evenodd" d="M112.034 197.997C112.034 205.712 118.288 211.965 126.002 211.965C133.717 211.965 139.97 205.712 139.97 197.997C139.97 190.283 133.717 184.03 126.002 184.03C118.288 184.03 112.034 190.283 112.034 197.997ZM116.225 197.997C116.225 203.397 120.602 207.775 126.002 207.775C131.402 207.775 135.78 203.397 135.78 197.997C135.78 192.597 131.402 188.22 126.002 188.22C120.602 188.22 116.225 192.597 116.225 197.997Z" fill="#E5F1FD"/>
<path fill-rule="evenodd" clip-rule="evenodd" d="M108.573 270.003C108.573 279.626 116.374 287.427 125.997 287.427C135.621 287.427 143.422 279.626 143.422 270.003C143.422 260.379 135.621 252.578 125.997 252.578C116.374 252.578 108.573 260.379 108.573 270.003ZM113.8 270.003C113.8 276.739 119.261 282.2 125.997 282.2C132.734 282.2 138.195 276.739 138.195 270.003C138.195 263.266 132.734 257.805 125.997 257.805C119.261 257.805 113.8 263.266 113.8 270.003Z" fill="#61A9F2"/>
<path fill-rule="evenodd" clip-rule="evenodd" d="M108.573 306.002C108.573 315.626 116.374 323.427 125.997 323.427C135.621 323.427 143.422 315.626 143.422 306.002C143.422 296.379 135.621 288.578 125.997 288.578C116.374 288.578 108.573 296.379 108.573 306.002ZM113.8 306.002C113.8 312.739 119.261 318.2 125.997 318.2C132.734 318.2 138.195 312.739 138.195 306.002C138.195 299.266 132.734 293.805 125.997 293.805C119.261 293.805 113.8 299.266 113.8 306.002Z" fill="#FDE9F5"/>
<path fill-rule="evenodd" clip-rule="evenodd" d="M108.573 342.002C108.573 351.626 116.374 359.427 125.997 359.427C135.621 359.427 143.422 351.626 143.422 342.002C143.422 332.379 135.621 324.578 125.997 324.578C116.374 324.578 108.573 332.379 108.573 342.002ZM113.8 342.002C113.8 348.739 119.261 354.2 125.997 354.2C132.734 354.2 138.195 348.739 138.195 342.002C138.195 335.266 132.734 329.805 125.997 329.805C119.261 329.805 113.8 335.266 113.8 342.002Z" fill="#ED2097"/>
<path fill-rule="evenodd" clip-rule="evenodd" d="M109.956 378.002C109.956 386.862 117.138 394.044 125.998 394.044C134.857 394.044 142.04 386.862 142.04 378.002C142.04 369.143 134.857 361.96 125.998 361.96C117.138 361.96 109.956 369.143 109.956 378.002ZM114.768 378.002C114.768 384.204 119.796 389.232 125.998 389.232C132.199 389.232 137.227 384.204 137.227 378.002C137.227 371.801 132.199 366.773 125.998 366.773C119.796 366.773 114.768 371.801 114.768 378.002Z" fill="#D2E6FA"/>
<path fill-rule="evenodd" clip-rule="evenodd" d="M116.183 485.997C116.183 491.421 120.579 495.817 126.003 495.817C131.426 495.817 135.822 491.421 135.822 485.997C135.822 480.574 131.426 476.178 126.003 476.178C120.579 476.178 116.183 480.574 116.183 485.997ZM119.129 485.997C119.129 489.794 122.206 492.871 126.003 492.871C129.799 492.871 132.876 489.794 132.876 485.997C132.876 482.201 129.799 479.124 126.003 479.124C122.206 479.124 119.129 482.201 119.129 485.997Z" fill="#C5EEFF"/>
<path fill-rule="evenodd" clip-rule="evenodd" d="M84.8444 54C84.8444 56.8473 87.1527 59.1556 90 59.1556C92.8473 59.1556 95.1555 56.8473 95.1555 54C95.1555 51.1527 92.8473 48.8445 90 48.8445C87.1527 48.8445 84.8444 51.1527 84.8444 54ZM86.3911 54C86.3911 55.9932 88.0068 57.6089 90 57.6089C91.9931 57.6089 93.6089 55.9932 93.6089 54C93.6089 52.0069 91.9931 50.3911 90 50.3911C88.0068 50.3911 86.3911 52.0069 86.3911 54Z" fill="#FCD8ED"/>
<path fill-rule="evenodd" clip-rule="evenodd" d="M81.7333 126C81.7333 130.566 85.4344 134.267 89.9999 134.267C94.5655 134.267 98.2666 130.566 98.2666 126C98.2666 121.435 94.5655 117.733 89.9999 117.733C85.4344 117.733 81.7333 121.435 81.7333 126ZM84.2133 126C84.2133 129.196 86.804 131.787 89.9999 131.787C93.1958 131.787 95.7866 129.196 95.7866 126C95.7866 122.804 93.1958 120.213 89.9999 120.213C86.804 120.213 84.2133 122.804 84.2133 126Z" fill="#6BABF0"/>
<path fill-rule="evenodd" clip-rule="evenodd" d="M80.1828 161.997C80.1828 167.421 84.5793 171.817 90.0025 171.817C95.4258 171.817 99.8223 167.421 99.8223 161.997C99.8223 156.574 95.4258 152.178 90.0025 152.178C84.5793 152.178 80.1828 156.574 80.1828 161.997ZM83.1287 161.997C83.1287 165.794 86.2062 168.871 90.0025 168.871C93.7988 168.871 96.8763 165.794 96.8763 161.997C96.8763 158.201 93.7988 155.124 90.0025 155.124C86.2062 155.124 83.1287 158.201 83.1287 161.997Z" fill="#80D9FF"/>
<path fill-rule="evenodd" clip-rule="evenodd" d="M78.6271 197.998C78.6271 204.28 83.72 209.373 90.0024 209.373C96.2848 209.373 101.378 204.28 101.378 197.998C101.378 191.715 96.2848 186.622 90.0024 186.622C83.72 186.622 78.6271 191.715 78.6271 197.998ZM82.0397 197.998C82.0397 202.395 85.6047 205.96 90.0024 205.96C94.4001 205.96 97.9651 202.395 97.9651 197.998C97.9651 193.6 94.4001 190.035 90.0024 190.035C85.6047 190.035 82.0397 193.6 82.0397 197.998Z" fill="#ECF4FD"/>
<path fill-rule="evenodd" clip-rule="evenodd" d="M77.0716 233.998C77.0716 241.139 82.861 246.928 90.0025 246.928C97.144 246.928 102.933 241.139 102.933 233.998C102.933 226.856 97.144 221.067 90.0025 221.067C82.861 221.067 77.0716 226.856 77.0716 233.998ZM80.9509 233.998C80.9509 238.997 85.0034 243.049 90.0025 243.049C95.0015 243.049 99.0541 238.997 99.0541 233.998C99.0541 228.998 95.0015 224.946 90.0025 224.946C85.0034 224.946 80.9509 228.998 80.9509 233.998Z" fill="#73B3F3"/>
<path fill-rule="evenodd" clip-rule="evenodd" d="M76.0347 269.997C76.0347 277.712 82.2884 283.965 90.0026 283.965C97.7168 283.965 103.97 277.712 103.97 269.997C103.97 262.283 97.7168 256.03 90.0026 256.03C82.2884 256.03 76.0347 262.283 76.0347 269.997ZM80.225 269.997C80.225 275.397 84.6026 279.775 90.0026 279.775C95.4025 279.775 99.7801 275.397 99.7801 269.997C99.7801 264.597 95.4025 260.22 90.0026 260.22C84.6026 260.22 80.225 264.597 80.225 269.997Z" fill="#BBDAF9"/>
<path fill-rule="evenodd" clip-rule="evenodd" d="M76.0347 305.997C76.0347 313.712 82.2884 319.965 90.0026 319.965C97.7168 319.965 103.97 313.712 103.97 305.997C103.97 298.283 97.7168 292.03 90.0026 292.03C82.2884 292.03 76.0347 298.283 76.0347 305.997ZM80.225 305.997C80.225 311.397 84.6026 315.775 90.0026 315.775C95.4025 315.775 99.7801 311.397 99.7801 305.997C99.7801 300.597 95.4025 296.22 90.0026 296.22C84.6026 296.22 80.225 300.597 80.225 305.997Z" fill="#B6E9FF"/>
<path fill-rule="evenodd" clip-rule="evenodd" d="M76.0347 341.997C76.0347 349.712 82.2884 355.965 90.0026 355.965C97.7168 355.965 103.97 349.712 103.97 341.997C103.97 334.283 97.7168 328.03 90.0026 328.03C82.2884 328.03 76.0347 334.283 76.0347 341.997ZM80.225 341.997C80.225 347.397 84.6026 351.775 90.0026 351.775C95.4025 351.775 99.7801 347.397 99.7801 341.997C99.7801 336.597 95.4025 332.22 90.0026 332.22C84.6026 332.22 80.225 336.597 80.225 341.997Z" fill="#559FED"/>
<path fill-rule="evenodd" clip-rule="evenodd" d="M78.6273 413.998C78.6273 420.28 83.7203 425.373 90.0026 425.373C96.285 425.373 101.378 420.28 101.378 413.998C101.378 407.715 96.285 402.622 90.0026 402.622C83.7203 402.622 78.6273 407.715 78.6273 413.998ZM82.0399 413.998C82.0399 418.395 85.6049 421.96 90.0026 421.96C94.4003 421.96 97.9653 418.395 97.9653 413.998C97.9653 409.6 94.4003 406.035 90.0026 406.035C85.6049 406.035 82.0399 409.6 82.0399 413.998Z" fill="#6AD2FF"/>
<path fill-rule="evenodd" clip-rule="evenodd" d="M45.2148 198C45.2148 202.852 49.1481 206.785 54 206.785C58.8519 206.785 62.7852 202.852 62.7852 198C62.7852 193.148 58.8519 189.215 54 189.215C49.1481 189.215 45.2148 193.148 45.2148 198ZM47.8503 198C47.8503 201.396 50.6036 204.15 54 204.15C57.3963 204.15 60.1496 201.396 60.1496 198C60.1496 194.604 57.3963 191.85 54 191.85C50.6036 191.85 47.8503 194.604 47.8503 198Z" fill="#ACD2F8"/>
<path fill-rule="evenodd" clip-rule="evenodd" d="M44.1828 233.997C44.1828 239.421 48.5793 243.817 54.0025 243.817C59.4258 243.817 63.8223 239.421 63.8223 233.997C63.8223 228.574 59.4258 224.178 54.0025 224.178C48.5793 224.178 44.1828 228.574 44.1828 233.997ZM47.1287 233.997C47.1287 237.794 50.2062 240.871 54.0025 240.871C57.7988 240.871 60.8763 237.794 60.8763 233.997C60.8763 230.201 57.7988 227.124 54.0025 227.124C50.2062 227.124 47.1287 230.201 47.1287 233.997Z" fill="#EF35A0"/>
<path fill-rule="evenodd" clip-rule="evenodd" d="M43.4915 269.998C43.4915 275.803 48.1975 280.509 54.0026 280.509C59.8077 280.509 64.5137 275.803 64.5137 269.998C64.5137 264.193 59.8077 259.487 54.0026 259.487C48.1975 259.487 43.4915 264.193 43.4915 269.998ZM46.6448 269.998C46.6448 274.061 49.939 277.355 54.0026 277.355C58.0661 277.355 61.3603 274.061 61.3603 269.998C61.3603 265.934 58.0661 262.64 54.0026 262.64C49.939 262.64 46.6448 265.934 46.6448 269.998Z" fill="#EF339F"/>
<path fill-rule="evenodd" clip-rule="evenodd" d="M43.4915 341.997C43.4915 347.803 48.1975 352.509 54.0026 352.509C59.8077 352.509 64.5137 347.803 64.5137 341.997C64.5137 336.192 59.8077 331.486 54.0026 331.486C48.1975 331.486 43.4915 336.192 43.4915 341.997ZM46.6448 341.997C46.6448 346.061 49.939 349.355 54.0026 349.355C58.0661 349.355 61.3603 346.061 61.3603 341.997C61.3603 337.934 58.0661 334.64 54.0026 334.64C49.939 334.64 46.6448 337.934 46.6448 341.997Z" fill="#62D0FF"/>
<path fill-rule="evenodd" clip-rule="evenodd" d="M11.8074 198C11.8074 201.42 14.58 204.193 18 204.193C21.4201 204.193 24.1926 201.42 24.1926 198C24.1926 194.58 21.4201 191.807 18 191.807C14.58 191.807 11.8074 194.58 11.8074 198ZM13.6652 198C13.6652 200.394 15.606 202.335 18 202.335C20.3941 202.335 22.3348 200.394 22.3348 198C22.3348 195.606 20.3941 193.665 18 193.665C15.606 193.665 13.6652 195.606 13.6652 198Z" fill="#75B4F3"/>
<path fill-rule="evenodd" clip-rule="evenodd" d="M13.3629 522C13.3629 524.561 15.439 526.637 17.9999 526.637C20.5609 526.637 22.637 524.561 22.637 522C22.637 519.439 20.5609 517.363 17.9999 517.363C15.439 517.363 13.3629 519.439 13.3629 522ZM14.754 522C14.754 523.793 16.2072 525.246 17.9999 525.246C19.7926 525.246 21.2459 523.793 21.2459 522C21.2459 520.207 19.7926 518.754 17.9999 518.754C16.2072 518.754 14.754 520.207 14.754 522Z" fill="#ABE6FF"/>
</g>
<defs>
<clipPath id="clip0_211_3775">
<rect width="575.995" height="360" fill="white" transform="translate(360) rotate(90)"/>
</clipPath>
</defs>
</svg>
