<svg width="157" height="52" viewBox="0 0 157 52" fill="none" xmlns="http://www.w3.org/2000/svg">
<path d="M48.8873 14.4562C48.7649 14.9128 48.5609 15.3422 48.2831 15.725C48.0771 15.9756 47.5661 16.3603 47.467 15.8163C47.4243 15.5812 47.4146 15.3636 47.2339 15.1771C47.1795 15.1227 47.2047 14.975 47.2164 14.872C47.2766 14.5456 47.1018 14.2231 46.7967 14.0929C46.1381 13.7801 45.4444 13.543 44.7313 13.3876C43.6549 13.1175 42.5513 12.9757 41.4419 12.966C40.824 12.9699 40.2062 13.0515 39.6272 13.0962C39.2114 13.4498 39.0967 14.0812 38.9199 14.5748C38.0942 16.8849 37.2529 19.1951 36.4776 21.5209C36.431 21.6588 36.159 22.2689 36.4932 22.2514L38.1991 22.162C38.5449 22.1407 38.8927 22.1368 39.2405 22.1523C39.4193 22.1504 39.6 22.1679 39.7748 22.2067C39.9031 22.267 40.0177 22.3505 40.111 22.4574C38.7587 22.7236 37.4647 22.539 36.2503 22.9703C36.4077 22.9625 36.567 22.9567 36.7244 22.9431C37.181 22.9043 37.6395 22.8654 38.0961 22.8188C38.4983 22.778 38.8986 22.7138 39.3027 22.6828C39.5436 22.6633 39.7846 22.6692 40.0255 22.6983C40.2256 22.7216 40.2664 22.8324 40.2761 23.1588C40.28 23.2248 40.3014 23.2909 40.3344 23.3492C40.5734 23.8 40.5462 23.8952 40.0838 24.2158C40.1265 24.2468 40.1673 24.2818 40.2062 24.3187C40.4102 24.583 39.7651 24.6801 39.6 24.7034C38.3876 24.8666 37.1946 24.9755 35.9744 25.0473C35.7879 25.059 35.6033 25.0862 35.3857 25.1095C35.2477 25.4942 35.0904 25.8634 34.9815 26.2481C34.3423 28.5078 33.705 30.7674 33.0891 33.0329C32.8054 34.0763 32.6034 35.1391 32.4829 36.2136C32.479 36.5147 32.3663 36.8023 32.1642 37.0257C32.0554 37.1268 31.9097 37.119 31.9214 36.8975C31.9311 36.7556 31.9389 36.6158 31.9466 36.4759H31.8883L31.9194 36.9014C31.6999 36.9869 31.525 37.1812 31.2491 37.119C31.0121 37.0665 30.8391 36.9752 30.8372 36.6799C30.742 36.7246 30.6798 36.7537 30.6138 36.7809C30.3087 36.9091 30.198 36.47 29.8929 36.5361C29.8133 36.5536 29.6578 36.3981 29.5995 36.2893C29.5102 36.1261 29.4577 35.9435 29.446 35.757C29.4344 35.4325 29.4519 35.11 29.4985 34.7894C29.6967 33.4837 29.9318 32.1838 30.2057 30.8918C30.5399 29.3141 30.946 27.7655 31.3618 26.2073C31.3851 26.1218 31.3968 26.0091 31.321 25.9644C31.286 25.9489 31.2472 25.943 31.2083 25.9489C31.0179 25.9566 30.8275 25.9644 30.6351 25.9722C29.1915 26.046 27.6197 26.1568 26.5297 25.0201C25.9273 24.3945 25.6184 23.5435 25.6786 22.6769C25.6981 22.4593 25.6786 22.2339 25.9079 22.1096C26.1838 21.96 26.5335 21.8687 26.755 22.0688C27.3807 22.64 28.1617 22.6167 28.8981 22.6614C30.0289 22.7313 31.1656 22.6808 32.343 22.6808C33.2698 19.8888 33.9867 17.0404 35.1176 14.2367C34.9077 14.2367 34.6979 14.2561 34.4919 14.2969C32.9939 14.7652 31.457 15.0955 29.9007 15.2859C28.8845 15.4452 27.8489 15.4297 26.8366 15.2412C25.6359 15.0003 24.8626 14.2853 24.3904 13.2108C24.0971 12.5444 23.893 11.8527 24.0601 11.093C24.2078 10.4207 24.4118 10.2342 25.1113 10.2983C25.1909 10.3158 25.2706 10.3449 25.3444 10.3818C25.393 10.444 25.4358 10.512 25.4688 10.5839C25.5912 10.9861 25.9409 11.2756 26.3567 11.3184C26.994 11.4291 27.6391 11.5029 28.2861 11.536C30.9829 11.604 33.6137 11.1396 36.2192 10.4887C36.567 10.4226 36.8604 10.1875 37.0022 9.86307C37.1227 9.6202 37.2723 9.39482 37.4472 9.18886C37.5696 9.01205 37.8027 8.94988 37.9951 9.04314C38.0048 9.13446 37.999 9.22772 37.9757 9.3171C37.863 9.56191 37.7211 9.79312 37.6045 10.0379C37.5676 10.1506 37.5404 10.2653 37.5268 10.3838C37.8532 10.2031 37.8999 9.91942 38.0495 9.70958C38.1583 9.525 38.2865 9.35207 38.4284 9.19275C38.5352 9.11892 38.6674 9.09754 38.7936 9.13057C38.9471 9.17138 38.9569 9.32487 38.9024 9.46476C38.8675 9.55803 38.8228 9.64935 38.782 9.74649C39.0734 9.79895 39.1434 9.44533 39.4562 9.40453L40.0333 9.8145C40.995 9.60854 41.9801 9.52111 42.9632 9.55414C44.4185 9.62797 45.9263 9.92136 47.2183 10.6616C47.8381 11.0191 48.5609 11.4816 48.8621 12.1538C49.1846 12.8727 49.1147 13.7218 48.8854 14.4582L48.8873 14.4562ZM27.9908 13.6616C29.8016 13.9763 33.229 13.2497 35.5547 12.6104C35.6441 12.5677 35.7257 12.5113 35.7956 12.4414C33.2076 12.9971 30.6332 13.51 27.9908 13.6616ZM28.6319 12.1927C28.6572 12.2102 28.6844 12.2257 28.7135 12.2374C28.7407 12.2393 28.766 12.2374 28.7932 12.2335L28.7116 12.1849L28.6319 12.1946V12.1927ZM29.244 14.5767C30.5982 14.6544 34.4297 13.8908 35.3429 13.3624C35.3235 13.3488 35.3002 13.3177 35.2827 13.3215C33.297 13.7723 31.3288 14.3027 29.2906 14.4757C29.2673 14.4815 29.2459 14.497 29.2323 14.5204C29.2245 14.534 29.2381 14.5592 29.244 14.5786V14.5767ZM30.81 31.9818C31.2647 30.0408 31.7757 28.1133 32.2595 26.1801C32.275 26.0072 32.2769 25.8323 32.2633 25.6594C32.1701 25.8304 32.0885 26.0072 32.0185 26.1879C31.8747 26.7066 31.7465 27.2312 31.6027 27.75C31.0198 29.8542 30.5322 31.9818 30.1533 34.1326C30.0503 34.5446 30.0522 34.9759 30.1591 35.3859C30.3748 34.2492 30.5477 33.1048 30.8119 31.9818H30.81ZM31.1986 11.944C30.9363 11.9809 30.674 12.0081 30.4117 12.0411C31.0451 12.1752 31.6474 11.9984 32.2556 11.9129C32.3003 11.9071 32.3275 11.7808 32.3644 11.7089C32.242 11.7536 32.1176 11.7905 31.9913 11.8196C31.7271 11.8682 31.4628 11.9071 31.1967 11.944H31.1986ZM30.911 24.5208H30.5341V24.5538H30.8955L30.911 24.5208ZM30.7342 25.3543L30.5341 25.3446L30.7323 25.3679V25.3563L30.7342 25.3543ZM31.459 32.8347C32.2595 29.1995 33.3009 25.6283 34.3656 22.0668C34.523 21.5364 34.6532 20.9963 34.7931 20.46C34.5075 20.5397 34.5541 20.835 34.4919 21.0235C33.9887 22.5584 33.501 24.1011 33.0425 25.6516C32.2303 28.3912 31.4706 31.1444 30.9674 33.9617C30.8799 34.358 30.8586 34.7641 30.9091 35.1663C30.9596 35.0789 31.0024 34.9875 31.0373 34.8943C31.1792 34.2084 31.3074 33.5187 31.459 32.8347ZM31.4551 25.1931L31.5017 25.2183L31.5095 25.1756L31.4551 25.1911V25.1931ZM31.6785 24.3284C31.6338 24.3304 31.5911 24.3751 31.5464 24.4003C31.5891 24.4236 31.6319 24.4664 31.6766 24.4645C31.7213 24.4625 31.764 24.4178 31.8067 24.3906C31.764 24.3692 31.7193 24.3265 31.6766 24.3284H31.6785ZM32.0185 23.0286C31.9738 23.0305 31.933 23.0733 31.8903 23.0966C31.933 23.1199 31.9777 23.1588 32.0205 23.1568C32.0632 23.1549 32.104 23.1121 32.1468 23.0869C32.104 23.0655 32.0613 23.0247 32.0205 23.0267L32.0185 23.0286ZM32.9531 31.803C32.9764 31.632 32.9822 31.4572 32.9686 31.2862C32.9084 31.3581 32.8618 31.4397 32.8307 31.5271C32.5626 32.6735 32.3022 33.8237 32.0496 34.9739C32.0341 35.1138 32.0321 35.2557 32.0457 35.3956C32.2361 34.8069 32.3935 34.2084 32.5179 33.6022C32.6578 33.0018 32.821 32.4073 32.9531 31.805V31.803ZM32.3702 11.7108C32.6014 11.7516 32.8365 11.7749 33.0716 11.7808C33.1765 11.7769 33.2776 11.67 33.3844 11.604L32.3702 11.7108ZM32.481 24.9871C32.444 25.0027 32.4091 25.0201 32.376 25.0435C32.4091 25.0609 32.444 25.0765 32.481 25.0862C32.4907 25.0881 32.5101 25.0532 32.5237 25.0357C32.5082 25.0182 32.4887 24.9832 32.481 24.9871ZM32.5839 24.2216C32.5839 24.2216 32.6344 24.3323 32.648 24.3284C32.7083 24.309 32.7685 24.2818 32.8229 24.2507L32.7549 24.0933C32.6947 24.1303 32.6364 24.1749 32.5839 24.2216ZM32.8385 23.3531C32.8385 23.4735 32.8482 23.5921 32.8754 23.7106C32.9414 23.627 32.9997 23.5357 33.0483 23.4386C34.0062 20.3201 34.9835 17.2094 36.0541 14.1279C36.0599 14.1123 36.0269 14.0832 36.0133 14.0599C35.4634 14.942 33.1668 21.6569 32.8385 23.3531ZM34.8844 24.9599C34.9058 24.8608 34.9174 24.7598 34.9233 24.6587C34.7775 24.8064 34.6707 24.991 34.6163 25.1911C34.082 27.0272 33.5554 28.8633 33.0347 30.7033C32.9997 30.8821 32.9842 31.0628 32.9881 31.2454C33.1824 31.191 33.1513 31.0045 33.1921 30.8665C33.7594 28.8983 34.3248 26.9301 34.8863 24.9619L34.8844 24.9599ZM33.4388 11.5904C33.6001 11.6137 33.7633 11.6195 33.9246 11.6098C34.0256 11.5748 34.1189 11.5204 34.1985 11.4485L33.4388 11.5923V11.5904ZM34.9777 11.3689C34.7348 11.3009 34.4764 11.3242 34.251 11.4349C34.4919 11.5107 34.7542 11.4874 34.9777 11.3689ZM34.8067 20.4114C34.933 20.2735 34.9718 20.0792 34.9077 19.9043C34.7717 20.0345 34.7309 20.2385 34.8067 20.4114ZM34.931 19.8596C35.1273 19.7683 35.1001 19.6032 35.0709 19.4361C35.0243 19.5779 34.9757 19.7178 34.931 19.8577V19.8596ZM36.2114 10.9842C35.681 11.0483 35.3352 11.1066 35.0223 11.3009C35.0087 11.3106 35.0068 11.3397 34.999 11.363C35.4265 11.3339 35.8423 11.2037 36.2114 10.9842ZM35.0962 19.3661C35.271 19.2787 35.2536 19.1252 35.24 18.9697C35.1914 19.1019 35.1428 19.232 35.0962 19.3661ZM35.2691 18.8765C35.4323 18.7657 35.4129 18.6064 35.3837 18.4451C35.3449 18.5889 35.308 18.7327 35.2691 18.8765ZM35.7004 22.1251C35.714 22.1018 35.7238 22.0785 35.7296 22.0513C35.7296 21.9891 35.7218 21.9289 35.7179 21.8687C35.681 21.9192 35.6499 21.9736 35.6266 22.0299C35.6188 22.0493 35.6752 22.0921 35.7024 22.1251H35.7004ZM35.6499 17.6349L35.6635 17.6932L35.6907 17.6408L35.6499 17.6349ZM35.7529 21.7948C35.8714 21.7035 35.9239 21.5519 35.8909 21.4082C35.8442 21.5364 35.7995 21.6646 35.7529 21.7948ZM36.0677 20.9049C35.8967 20.9904 35.9394 21.1653 35.9161 21.311C36.058 21.2139 36.0424 21.0507 36.0677 20.9049ZM37.5249 24.4955C37.2626 24.4858 37.0003 24.4703 36.738 24.4703C36.4601 24.4489 36.1823 24.4878 35.9219 24.583H37.521L37.5268 24.4955H37.5249ZM35.9569 23.5163C36.7632 23.6698 39.089 23.4483 39.7282 23.1685L35.9569 23.5163ZM36.1104 20.8311C36.1959 20.7165 36.227 20.5727 36.2017 20.4328C36.1726 20.5649 36.1415 20.699 36.1104 20.8311ZM36.3319 19.8324C36.2969 19.9898 36.262 20.1472 36.2289 20.3065C36.3785 20.1763 36.3552 20.0034 36.3319 19.8324ZM36.3455 19.7838C36.5903 19.6886 36.4951 19.4846 36.4873 19.3098L36.4835 19.3137C36.4349 19.4671 36.3883 19.6226 36.3436 19.7838H36.3455ZM36.6272 19.2612C36.6486 19.2456 36.637 19.1874 36.6389 19.1504C36.6234 19.1718 36.6078 19.1932 36.5903 19.2126C36.5612 19.2418 36.5301 19.269 36.499 19.3001C36.5437 19.2962 36.5864 19.2845 36.6253 19.2631L36.6272 19.2612ZM36.7904 12.1325C36.804 12.1266 36.8313 12.1208 36.8313 12.113C36.8313 12.0936 36.8274 12.0742 36.8196 12.0567C36.804 12.0625 36.7749 12.0683 36.7749 12.0742C36.7768 12.0936 36.7827 12.113 36.7904 12.1325ZM38.8519 24.3984L38.8306 24.3615H38.4944V24.3984H38.8539H38.8519ZM38.6965 10.1934C38.7218 10.0554 38.7451 9.91553 38.7684 9.77758C38.7179 9.91165 38.6674 10.0418 38.6149 10.1701L38.6965 10.1934ZM44.7139 12.6745L44.5856 12.6804C44.5079 12.6143 44.4418 12.5094 44.3525 12.4861C43.55 12.2568 42.7184 12.1461 41.883 12.1577C41.7275 12.1616 41.5701 12.1849 41.4147 12.1985C41.8849 12.3248 42.3648 12.4084 42.8486 12.4511C43.4334 12.5269 44.0144 12.6182 44.5973 12.6979L44.7119 12.6765L44.7139 12.6745ZM43.1129 11.6079C43.6608 11.6972 44.2067 11.7866 44.7585 11.8702C44.7702 11.8216 44.7624 11.7711 44.7352 11.7303C44.708 11.6895 44.6633 11.6623 44.6128 11.6564C44.1912 11.5787 43.7676 11.5049 43.3421 11.4446C43.2586 11.4505 43.1789 11.4718 43.1031 11.5088C43.1051 11.5418 43.109 11.5748 43.1109 11.6079H43.1129ZM43.7152 10.2692C44.1795 10.308 44.6206 10.512 45.1666 10.4576C44.6517 10.2167 44.1951 10.1215 43.7152 10.2692ZM45.0811 11.9246C45.0811 11.8896 45.0791 11.8566 45.0791 11.8235L44.8188 11.8818L45.0811 11.9265V11.9246Z" fill="#ED1F96"/>
<path d="M55.5675 25.5699C54.7903 26.9144 53.4924 27.8762 51.9807 28.2279C51.5164 28.3347 51.0384 28.3775 50.5624 28.3522C50.3525 28.3095 50.1446 28.4397 50.0922 28.6495C49.4685 30.1339 48.6175 31.5134 47.5702 32.7375C47.1078 33.2932 46.5696 33.777 45.9673 34.1772C45.0677 34.7465 44.1856 34.7601 43.216 34.2802C41.9959 33.6759 41.2653 32.5471 40.9991 31.2278C40.1656 27.0835 42.0541 21.8025 45.7322 19.5506C45.9809 19.4049 46.2393 19.2708 46.5016 19.1523C47.3118 18.7676 48.1201 18.8667 48.8992 19.2708C49.0624 19.3757 49.2315 19.467 49.4063 19.5486C50.4594 19.9217 50.9568 20.7552 51.2405 21.7539C51.392 22.3174 51.4464 22.9022 51.4017 23.4832C51.3318 24.4566 51.1608 25.4222 50.8946 26.3607C50.8208 26.6288 50.7489 26.8969 50.6809 27.167C50.6712 27.2039 50.6751 27.2428 50.6964 27.2758C50.747 27.3283 50.8208 27.3516 50.8907 27.338C51.5164 27.3088 52.1323 27.1631 52.7055 26.9086C53.642 26.5025 54.4192 25.8011 54.9205 24.9132C55.0079 24.7616 55.2488 24.818 55.3907 24.8821C55.7501 25.0453 55.7559 25.2376 55.5636 25.5699H55.5675ZM41.7355 27.8218H41.6772V28.2026H41.7355V27.8218ZM41.8229 26.9863C41.8074 27.0718 41.7413 27.1962 41.9414 27.2428C41.9298 27.0873 41.9201 26.9416 41.9084 26.7978C41.8696 26.8561 41.8404 26.9183 41.821 26.9863H41.8229ZM42.1377 26.4637C42.7789 24.4022 43.8611 22.5039 45.3067 20.901C45.3378 20.8465 45.3611 20.7863 45.3708 20.7222C45.091 20.8563 44.8442 21.0447 44.6402 21.2798C43.9155 22.0784 43.3151 22.9799 42.8546 23.9553C42.4447 24.8471 42.0269 25.7467 41.9298 26.7473C42.093 26.7298 42.1008 26.5861 42.1377 26.4656V26.4637ZM43.9485 24.373C43.8358 24.4216 43.8203 24.5188 43.8164 24.6237C43.8611 24.5401 43.9038 24.4566 43.9466 24.373H43.9485ZM49.5326 22.1561C49.8124 22.0182 50.0397 21.9055 50.0222 21.5635C50.0145 21.307 49.9232 21.0583 49.7599 20.8601C49.7366 20.8368 49.7094 20.8174 49.6803 20.8019C49.3966 20.6639 48.975 21.0739 48.8001 21.2429C47.0903 22.8944 46.0528 25.0803 45.1104 27.2272C44.58 28.3639 44.1933 29.5607 43.9621 30.7926C43.8514 31.4687 43.7562 32.2712 43.9699 32.9376C44.102 33.3495 44.4032 33.5691 44.8345 33.4117C44.9783 33.3554 45.1143 33.2873 45.2464 33.2077C46.0955 32.7219 46.7483 31.9603 47.306 31.1715C48.0152 30.1553 48.598 29.0536 49.0372 27.8937C48.6466 27.4701 48.2716 27.101 47.9433 26.6949C47.4226 26.0615 47.2691 25.2007 47.543 24.4255C47.8558 23.4229 48.5786 22.5991 49.5307 22.158L49.5326 22.1561ZM43.9913 24.3109C44.1312 24.169 44.0729 24.0155 44.0068 23.8601L43.9893 24.3109H43.9913ZM44.0437 28.0899L44.0107 28.1463L44.0554 28.156L44.0437 28.0899ZM44.6072 23.1587C44.5081 23.2694 44.409 23.3782 44.3099 23.4909C44.2089 23.6075 44.1079 23.7241 44.0127 23.8445C44.1098 23.8387 44.2419 23.862 44.2847 23.8096C44.444 23.623 44.6286 23.4346 44.6072 23.1567V23.1587ZM44.6325 23.1218C44.6791 23.114 44.7335 23.112 44.7529 23.0848C45.3339 22.2882 45.9789 21.5402 46.6842 20.8504C46.7173 20.8155 46.7017 20.7339 46.7211 20.5629C45.7535 21.2915 45.0521 22.092 44.6325 23.1218ZM49.1732 23.487C49.2062 23.4812 49.2412 23.4715 49.2723 23.4559C49.282 23.4501 49.2723 23.4132 49.2723 23.3899C49.2489 23.3977 49.2217 23.3996 49.2062 23.4151C49.1907 23.4365 49.1809 23.4598 49.1732 23.487ZM49.4335 26.6618C49.7308 25.9915 49.8513 25.3329 49.9717 24.4818C49.2237 25.3542 49.1013 25.9041 49.4316 26.6618H49.4335Z" fill="#ED1F96"/>
<path d="M68.8184 25.5699C68.0413 26.9144 66.7434 27.8762 65.2317 28.2279C64.7674 28.3347 64.2894 28.3775 63.8134 28.3522C63.6035 28.3095 63.3956 28.4397 63.3432 28.6495C62.7195 30.1339 61.8685 31.5134 60.8212 32.7375C60.3588 33.2932 59.8206 33.777 59.2182 34.1772C58.3187 34.7465 57.4366 34.7601 56.467 34.2802C55.2468 33.6759 54.5163 32.5471 54.2501 31.2278C53.4166 27.0835 55.3051 21.8025 58.9832 19.5506C59.2318 19.4049 59.4903 19.2708 59.7526 19.1523C60.5628 18.7676 61.3711 18.8667 62.1502 19.2708C62.3134 19.3757 62.4824 19.467 62.6573 19.5486C63.7104 19.9217 64.2078 20.7552 64.4915 21.7539C64.643 22.3174 64.6974 22.9022 64.6527 23.4832C64.5828 24.4566 64.4118 25.4222 64.1456 26.3607C64.0718 26.6288 63.9999 26.8969 63.9319 27.167C63.9222 27.2039 63.9261 27.2428 63.9474 27.2758C63.9979 27.3283 64.0718 27.3516 64.1417 27.338C64.7674 27.3088 65.3833 27.1631 65.9564 26.9086C66.893 26.5025 67.6701 25.8011 68.1714 24.9132C68.2589 24.7616 68.4998 24.818 68.6416 24.8821C69.0011 25.0453 69.0069 25.2376 68.8145 25.5699H68.8184ZM54.9865 27.8218H54.9282V28.2026H54.9865V27.8218ZM55.0739 26.9863C55.0584 27.0718 54.9923 27.1962 55.1924 27.2428C55.1808 27.0873 55.1711 26.9416 55.1594 26.7978C55.1205 26.8561 55.0914 26.9183 55.072 26.9863H55.0739ZM55.3887 26.4637C56.0298 24.4022 57.1121 22.5039 58.5576 20.901C58.5887 20.8465 58.612 20.7863 58.6218 20.7222C58.342 20.8563 58.0952 21.0447 57.8912 21.2798C57.1665 22.0784 56.5661 22.9799 56.1056 23.9553C55.6957 24.8471 55.2779 25.7467 55.1808 26.7473C55.344 26.7298 55.3517 26.5861 55.3887 26.4656V26.4637ZM57.1995 24.373C57.0868 24.4216 57.0713 24.5188 57.0674 24.6237C57.1121 24.5401 57.1548 24.4566 57.1976 24.373H57.1995ZM62.7836 22.1561C63.0634 22.0182 63.2907 21.9055 63.2732 21.5635C63.2654 21.307 63.1741 21.0583 63.0109 20.8601C62.9876 20.8368 62.9604 20.8174 62.9313 20.8019C62.6476 20.6639 62.226 21.0739 62.0511 21.2429C60.3413 22.8944 59.3037 25.0803 58.3614 27.2272C57.831 28.3639 57.4443 29.5607 57.2131 30.7926C57.1024 31.4687 57.0072 32.2712 57.2209 32.9376C57.353 33.3495 57.6542 33.5691 58.0855 33.4117C58.2293 33.3554 58.3653 33.2873 58.4974 33.2077C59.3465 32.7219 59.9993 31.9603 60.557 31.1715C61.2661 30.1553 61.849 29.0536 62.2881 27.8937C61.8976 27.4701 61.5226 27.101 61.1942 26.6949C60.6735 26.0615 60.52 25.2007 60.794 24.4255C61.1068 23.4229 61.8296 22.5991 62.7816 22.158L62.7836 22.1561ZM57.2423 24.3109C57.3821 24.169 57.3239 24.0155 57.2578 23.8601L57.2403 24.3109H57.2423ZM57.2947 28.0899L57.2617 28.1463L57.3064 28.156L57.2947 28.0899ZM57.8582 23.1587C57.7591 23.2694 57.66 23.3782 57.5609 23.4909C57.4599 23.6075 57.3588 23.7241 57.2636 23.8445C57.3608 23.8387 57.4929 23.862 57.5356 23.8096C57.695 23.623 57.8795 23.4346 57.8582 23.1567V23.1587ZM57.8834 23.1218C57.9301 23.114 57.9845 23.112 58.0039 23.0848C58.5848 22.2882 59.2299 21.5402 59.9352 20.8504C59.9682 20.8155 59.9527 20.7339 59.9721 20.5629C59.0045 21.2915 58.3031 22.092 57.8834 23.1218ZM62.4241 23.487C62.4572 23.4812 62.4921 23.4715 62.5232 23.4559C62.5329 23.4501 62.5232 23.4132 62.5232 23.3899C62.4999 23.3977 62.4727 23.3996 62.4572 23.4151C62.4416 23.4365 62.4319 23.4598 62.4241 23.487ZM62.6845 26.6618C62.9818 25.9915 63.1022 25.3329 63.2227 24.4818C62.4747 25.3542 62.3523 25.9041 62.6826 26.6618H62.6845Z" fill="#ED1F96"/>
<path d="M77.0878 17.5806C77.0878 17.872 76.8507 18.1071 76.5612 18.1071L74.1617 18.0877C74.1617 18.0877 74.1442 18.0857 74.1364 18.0857C73.8624 18.7833 73.5924 19.4847 73.3281 20.188C72.685 21.892 72.0458 23.5941 71.5076 25.333C71.2627 26.1238 71.0354 26.9204 70.8334 27.7248C70.6021 28.638 70.3845 29.5551 70.2252 30.4819C70.0989 31.2746 70.0154 32.0732 69.9726 32.8737C69.9221 33.6683 70.8081 32.7027 70.9674 32.5025C72.5956 30.4139 73.9538 28.127 75.0068 25.6963C75.1351 25.4068 75.3041 24.9017 75.5858 24.7793C75.7413 24.7093 75.92 24.7113 76.0755 24.7831C76.3261 24.9017 76.2834 24.9872 76.1746 25.2125C74.8359 28.0182 73.4797 30.8549 71.5775 33.3322C71.1811 33.8471 70.6876 34.3192 70.0698 34.5174C68.6728 34.9623 67.3982 33.9345 67.1067 32.6075C66.8483 31.43 67.0232 30.1069 67.202 28.9294C67.4099 27.6024 67.6896 26.2889 68.0413 24.993C68.6728 22.6517 69.4519 20.3512 70.3729 18.1071H68.1385C67.847 18.1071 67.6119 17.8701 67.6119 17.5806C67.6119 17.2891 67.849 17.054 68.1385 17.054H70.7887C70.7887 17.054 70.8023 17.056 70.81 17.056C71.1811 16.1894 71.5697 15.3306 71.9739 14.4796C72.2439 13.9123 72.516 13.2458 72.9473 12.7795C73.0464 12.6571 73.1533 12.5444 73.2698 12.4376C73.4233 12.2899 73.6351 12.218 73.8469 12.2433C74.0256 12.2646 74.2141 12.218 74.387 12.253C74.5988 12.2957 74.6027 12.4414 74.4745 12.5969C74.4181 12.9447 74.1131 13.1448 73.9771 13.4518C73.6079 14.2834 72.7277 16.3079 72.3489 17.1337C72.2439 17.2678 72.2653 17.4601 72.3974 17.567C72.4305 17.4931 72.4596 17.4232 72.4907 17.3552C72.9628 16.3721 73.9207 14.1843 74.3793 13.1934C74.4395 12.9991 74.4725 12.7989 74.4784 12.5969L74.9544 12.3948C75.3818 12.4997 75.4809 12.9136 75.7549 13.1428C75.8365 13.2128 75.8229 13.4479 75.7899 13.5936C75.5314 14.6914 75.0632 15.7289 74.6474 16.7878C74.6124 16.8772 74.5774 16.9685 74.5405 17.0599H76.5612C76.8527 17.0599 77.0878 17.2969 77.0878 17.5884V17.5806ZM68.3619 26.9787C68.3794 26.8233 68.3736 26.6639 68.3425 26.5104C68.2259 26.9729 68.0977 27.4334 67.9986 27.8997C67.7499 28.9683 67.6061 30.0583 67.5692 31.1561C67.5478 31.5777 67.5828 32.0013 67.6741 32.4132C67.7052 32.3374 67.7285 32.2577 67.744 32.1781C67.7499 30.4275 67.9578 28.6846 68.36 26.9806L68.3619 26.9787ZM68.6261 30.3595C68.8982 28.1775 69.3897 26.0286 70.0892 23.9438C70.6099 22.3525 71.1928 20.7826 71.7465 19.203C71.8029 19.0417 71.8379 18.8707 71.8923 18.6686C71.562 18.7328 71.56 18.9776 71.4881 19.1544C70.2097 22.2806 69.2401 25.5234 68.5912 28.8362C68.4513 29.5531 68.4105 30.2876 68.3405 31.0162C68.2978 31.3387 68.3444 31.6671 68.4746 31.9663C68.5329 31.3387 68.5679 30.8471 68.6261 30.3575V30.3595ZM68.3658 26.4211C68.4299 26.3667 68.5115 26.3161 68.5309 26.2501C68.6844 25.7235 68.8146 25.1951 68.9623 24.6685C69.483 22.811 70.1028 20.9847 70.8159 19.1913C70.88 19.03 71.0102 18.8785 70.913 18.6842C70.6799 18.6686 70.6915 18.8785 70.641 18.9989C70.0115 20.5708 69.4674 22.1776 69.0167 23.8097C68.7758 24.6724 68.5795 25.5487 68.3658 26.4211ZM69.9707 29.4696C70.0659 28.8692 70.1863 28.2747 70.2952 27.6743C70.2446 27.719 70.1805 27.7617 70.1689 27.8142C69.9454 28.9333 69.7142 30.0525 69.5238 31.1774C69.4888 31.5563 69.4869 31.9371 69.5141 32.316C69.6909 31.364 69.8191 30.4158 69.9687 29.4676L69.9707 29.4696ZM70.3146 27.5985C70.369 27.4217 70.4253 27.2449 70.4758 27.0642C70.2271 27.1827 70.2796 27.3945 70.3146 27.5985ZM70.5808 26.524C70.4078 26.6581 70.4331 26.8271 70.4933 27.002L70.5808 26.524ZM70.608 26.4308C70.6701 26.2753 70.7304 26.1199 70.7887 25.9625C70.573 26.0597 70.5983 26.2481 70.608 26.4308ZM70.8062 25.8984C70.8334 25.7371 70.8606 25.5778 70.8878 25.4185C70.7537 25.5409 70.7207 25.7391 70.8062 25.9004V25.8984ZM70.913 25.3447C71.119 25.0202 71.2997 24.6899 71.1792 24.2896C71.0471 24.6297 70.878 24.9638 70.913 25.3466V25.3447ZM71.2997 24.2216C71.4881 23.7981 71.7368 23.3881 71.6785 22.8965C71.4415 23.3123 71.2783 23.765 71.1947 24.2352C71.2394 24.2352 71.2938 24.2391 71.3016 24.2216H71.2997ZM71.3696 17.2678C71.3482 17.3183 71.391 17.396 71.4085 17.4698C71.628 17.3843 71.6533 17.19 71.7291 17.0327C72.0768 16.306 72.8968 14.3708 73.2523 13.648C73.3301 13.5178 73.4194 13.3974 73.5205 13.2827C73.5166 13.2789 73.5127 13.275 73.5088 13.2711V13.2905C73.3087 13.2147 73.2251 13.3663 73.1416 13.4906C72.6053 14.2931 71.7407 16.3818 71.3716 17.2678H71.3696ZM72.924 19.8111C72.9531 19.6906 72.9667 19.5682 72.9648 19.4439C72.9395 19.4458 72.9123 19.4478 72.9065 19.4594C72.3897 20.5281 71.9816 21.6433 71.6883 22.7936C71.6844 22.811 71.6863 22.8305 71.6883 22.848C71.7524 22.7877 71.8398 22.7353 71.867 22.6595C72.2265 21.7133 72.5781 20.7651 72.924 19.813V19.8111ZM72.9726 19.4128C73.1805 19.0883 73.1824 19.0805 73.1649 18.7716C73.0464 18.9931 72.8968 19.1699 72.9726 19.4128ZM73.7808 17.2503C73.7731 17.2697 73.7867 17.2988 73.7905 17.3222C73.8255 17.2988 73.8858 17.2775 73.8858 17.2522C73.8858 17.1939 73.878 17.1356 73.8644 17.0774C73.8352 17.1356 73.8041 17.192 73.7789 17.2503H73.7808ZM74.0995 16.6596C74.0995 16.681 74.0995 16.7043 74.1034 16.7257C74.1111 16.7606 74.1228 16.7956 74.1325 16.8287C74.1403 16.7878 74.1442 16.747 74.1442 16.7062C74.1442 16.6888 74.117 16.6752 74.1014 16.6577L74.0995 16.6596Z" fill="#ED1F96"/>
<path d="M90.9932 25.6575C90.2238 27.0584 88.9472 28.1095 87.4259 28.5953C86.9363 28.7216 86.4389 28.8148 85.9376 28.8731C85.8404 28.8887 85.7569 28.947 85.7083 29.0305C85.5548 29.3064 85.4033 29.5804 85.244 29.8524C84.6533 30.853 84.0024 31.8109 83.1378 32.5978C82.7589 32.9339 82.347 33.2312 81.9059 33.4838C80.915 34.0667 79.9863 33.7966 79.1547 33.1438C78.1541 32.3588 77.9792 31.2222 78.6515 30.1244C79.3568 28.9742 80.4371 28.3485 81.7155 28.0299C82.075 27.9405 82.4422 27.888 82.8444 27.8181C82.9493 27.8006 83.0367 27.7307 83.0795 27.6335C83.233 27.2857 83.3962 26.9321 83.5303 26.5668C84.1948 24.7638 84.8165 22.949 84.9001 21.0041C84.9195 20.7224 84.9136 20.4407 84.8845 20.1609C84.6902 18.7289 82.6384 20.7185 82.3023 21.0838C81.9429 21.4801 81.6048 21.8998 81.2939 22.3351C79.9474 24.1867 78.8807 26.2249 78.1269 28.3874C77.7422 29.4949 77.4935 30.649 77.1981 31.7837C76.6871 33.7364 76.2267 35.7026 75.8575 37.6884C75.6069 39.0387 75.329 40.3871 75.2416 41.7647C75.226 41.9085 75.1949 42.0503 75.1522 42.1883C75.1269 42.2815 75.0589 42.3573 74.9696 42.3942C74.614 42.538 74.307 42.8294 73.8834 42.7692C73.7494 42.7517 73.6406 42.6507 73.6153 42.5166C73.5823 42.3456 73.5473 42.1688 73.5123 41.9901C73.4579 42.0056 73.3724 42.0134 73.3666 42.0367C73.3278 42.2543 73.2986 42.4739 73.2695 42.6895C73.0985 42.8081 72.945 42.8139 72.8401 42.6235C72.7604 42.4797 72.7041 42.3223 72.6127 42.1105C72.5933 42.2174 72.5758 42.3107 72.5583 42.3981C72.5428 42.4836 72.4923 42.5574 72.4204 42.6041C72.3485 42.6507 72.2591 42.6662 72.1756 42.6449C71.9502 42.5866 71.8977 42.4991 71.8744 42.2835C71.8569 42.1164 71.8705 41.9454 71.8666 41.7764C71.8492 40.4454 72.0571 39.1339 72.2766 37.8282C72.4962 36.5226 72.7371 35.2169 73.0169 33.9229C73.5415 31.4981 74.1457 29.0946 74.8666 26.7184C75.3484 25.1271 75.7934 23.5241 76.3802 21.9678C76.6794 21.177 77.0116 20.3979 77.3614 19.6285C77.5032 19.3545 77.6819 19.102 77.8937 18.8785C77.9948 18.7289 78.1949 18.6862 78.3484 18.7814C78.496 18.8746 78.6048 18.7736 78.737 18.7406C79.1042 18.6454 79.1625 18.6881 79.1489 19.1058C79.1489 19.1233 79.145 19.1408 79.1411 19.1583C79.1877 19.1486 79.2324 19.133 79.2752 19.1136C79.4151 19.034 79.5472 18.8863 79.689 18.8766C79.9416 18.8591 80.0893 19.067 80.1786 19.2807C80.2408 19.4303 80.2233 19.6207 80.4856 19.543C80.5206 19.5333 80.6683 19.7004 80.6586 19.7703C80.5478 20.3999 80.3963 21.0197 80.2058 21.6298C80.1903 21.688 80.1612 21.8007 80.2253 21.8474C80.2894 21.894 80.3613 21.8124 80.4021 21.7658C80.6935 21.4296 80.9461 21.0605 81.2317 20.7185C81.5135 20.3727 81.8205 20.0482 82.1469 19.747C82.72 19.2263 83.3651 18.727 84.1831 18.8358C86.1027 19.0884 87.1383 20.9555 87.1772 22.7567C87.2122 24.313 86.9538 25.8635 86.4136 27.3246C86.3786 27.4237 86.3961 27.5325 86.4603 27.616C86.5224 27.6996 86.6235 27.7462 86.7284 27.7384C87.3385 27.6957 88.0574 27.3848 88.784 26.8602C89.468 26.3725 90.0198 25.7255 90.3948 24.9755C90.4608 24.8454 90.6104 24.7793 90.7503 24.8182C90.83 24.8356 90.9077 24.8667 90.9776 24.9095C91.3196 25.1368 91.2011 25.3156 91.0029 25.6595L90.9932 25.6575ZM75.7273 26.2288L75.704 26.0539V26.0597L75.7118 26.2307H75.7273V26.2288ZM75.9236 25.6575C75.9197 25.6672 75.9158 25.6789 75.91 25.6886C75.8439 25.8013 75.7778 25.9159 75.7137 26.0345C75.8614 25.9703 75.9488 25.8168 75.9236 25.6575ZM76.0421 25.4943C76.0576 25.4768 76.0518 25.4419 76.0557 25.4146C76.0265 25.4302 75.978 25.4399 75.9702 25.4632C75.9585 25.4963 75.9527 25.5312 75.9508 25.5662C75.9508 25.574 75.9488 25.5817 75.9469 25.5895C75.9818 25.5623 76.0129 25.5312 76.0421 25.4982V25.4943ZM76.2267 27.7151L76.1995 27.6491L76.1742 27.7171H76.2267V27.7151ZM76.3821 24.5811C76.3704 24.3518 76.5045 24.1167 76.3802 23.8914C76.3024 24.1148 76.3024 24.3577 76.3821 24.5811ZM77.2856 24.4626C77.9093 22.8324 78.5232 21.1984 79.1275 19.5605C79.1508 19.4439 79.1469 19.3235 79.1178 19.2069C79.112 19.2224 79.1061 19.238 79.0984 19.2516C78.9274 19.5042 78.7797 19.7723 78.6554 20.0501C78.1463 21.4063 77.6606 22.7703 77.1768 24.1362C77.1418 24.2741 77.1262 24.416 77.134 24.5578C77.1321 24.6044 77.1185 24.6491 77.0952 24.688C76.8251 25.1582 76.6658 25.6867 76.6327 26.2288C76.6308 26.289 76.6114 26.3453 76.5764 26.3958L76.419 26.6173C76.3821 26.6698 76.3607 26.7339 76.3607 26.8V27.0584L76.4074 27.0545C76.4015 27.0098 76.3957 26.9651 76.3918 26.9224C76.3801 26.8097 76.4268 26.7009 76.5162 26.6329C76.59 26.5688 76.625 26.4697 76.6114 26.3725C76.6114 26.3201 76.623 26.2676 76.6502 26.221C76.9222 25.7838 77.0816 25.2864 77.1126 24.7715C77.1126 24.6802 77.1534 24.5928 77.2234 24.5345C77.2487 24.517 77.2681 24.4937 77.2817 24.4665L77.2856 24.4626ZM76.5803 23.4231C76.52 23.5533 76.4618 23.6854 76.4054 23.8234C76.5706 23.7437 76.6075 23.7107 76.59 23.5552C76.5803 23.46 76.6211 23.3668 76.6969 23.3104C76.7707 23.2482 76.8018 23.1472 76.7765 23.0539C76.7629 22.9451 76.8076 22.8383 76.8931 22.7722C76.9708 22.7081 76.9611 22.6343 76.9106 22.4186C76.8562 22.576 76.8018 22.7314 76.7493 22.8946C76.6969 23.0578 76.6425 23.221 76.5939 23.3862C76.59 23.3998 76.5861 23.4134 76.5803 23.4251V23.4231ZM77.3186 21.486C77.3089 21.5482 77.2797 21.6026 77.2351 21.6472C77.0641 21.8513 76.9572 22.1 76.9261 22.3642C76.9747 22.3623 77.0349 22.3642 77.0466 22.3409C77.167 22.1252 77.3205 21.9173 77.3011 21.657C77.3011 21.589 77.3225 21.5209 77.3652 21.4685C77.6625 21.0313 77.8607 20.5359 77.9481 20.0152C77.9656 19.9433 78.0084 19.8811 78.0666 19.8364C78.1696 19.7509 78.1424 19.6382 78.0919 19.5178C78.0628 19.6266 78.0336 19.7354 78.0064 19.8422C77.9948 19.8811 77.9773 19.918 77.952 19.951C77.6081 20.396 77.3886 20.9264 77.3186 21.486ZM78.1541 19.4633C78.1735 19.4633 78.1929 19.4633 78.2124 19.4595C78.226 19.4575 78.2357 19.4264 78.2473 19.407C78.2143 19.4245 78.1852 19.4439 78.156 19.4633H78.1541ZM79.6346 21.2198C79.5452 21.3383 79.5064 21.4879 79.5258 21.6356C79.5394 21.7444 79.4986 21.8532 79.4151 21.927C79.3665 21.9775 79.3315 22.0397 79.314 22.1058C79.143 22.6401 78.9643 23.1705 78.7953 23.7048C78.7603 23.8408 78.735 23.9807 78.7175 24.1206L78.8225 24.1459C79.077 23.3804 79.3296 22.6168 79.5763 21.8435C79.5783 21.8357 79.5802 21.8279 79.5822 21.8202C79.6268 21.62 79.7085 21.4238 79.6307 21.2178L79.6346 21.2198ZM82.3004 29.2481C82.3217 29.2151 82.3334 29.1782 82.3353 29.1393C82.3353 29.1277 82.3315 29.1179 82.3276 29.1082C82.279 28.9955 81.9953 29.0694 81.9157 29.0966C81.1054 29.3569 80.3885 29.8446 79.8483 30.5033C79.6074 30.8005 79.452 31.1561 79.3976 31.535C79.3607 31.7992 79.3548 32.454 79.8134 32.2966C80.1009 32.1742 80.3555 31.9858 80.5536 31.7448C81.257 31.0046 81.8477 30.1633 82.3023 29.2501L82.3004 29.2481ZM79.8192 21.008C79.8639 20.9536 79.9027 20.8953 79.9338 20.8312C79.9261 20.8254 79.9163 20.8215 79.9086 20.8176L79.9144 20.8429C79.7784 20.8856 79.6793 21.0022 79.6599 21.144C79.7162 21.1032 79.7706 21.0585 79.8192 21.0099V21.008ZM82.7861 29.5201C82.8211 29.5046 82.8813 29.4949 82.8852 29.4754C82.8871 29.4405 82.8833 29.4036 82.8697 29.3705C82.8366 29.3938 82.8075 29.423 82.7803 29.4521C82.7706 29.4638 82.7842 29.4968 82.7861 29.5201ZM82.9357 29.3453C82.9687 29.2909 82.9998 29.2345 83.027 29.1782C83.0134 29.1685 82.9979 29.1626 82.9804 29.1568C82.9493 29.1957 82.9221 29.2365 82.8969 29.2792C82.8891 29.2986 82.8852 29.32 82.8852 29.3414C82.9066 29.3453 82.9299 29.353 82.9338 29.3453H82.9357ZM83.4409 29.9087C83.8062 29.491 84.0549 28.9839 84.1617 28.4398C83.9169 28.7818 83.7129 29.1451 83.4914 29.4988C83.3807 29.6561 83.2621 29.8057 83.1358 29.9476C83.1436 29.9903 83.1514 30.0331 83.163 30.0758C83.1747 30.0972 83.1883 30.1166 83.2058 30.1341C83.198 30.1127 83.1883 30.0894 83.1805 30.068C83.1669 30.0272 83.1533 29.9864 83.1397 29.9437C83.2427 29.9359 83.3923 29.967 83.4409 29.9107V29.9087ZM83.7032 27.6899C83.6643 27.7462 83.6313 27.8045 83.606 27.8667C83.6022 27.8783 83.6352 27.9055 83.6527 27.925C83.6896 27.8706 83.7284 27.8162 83.7576 27.7579C83.7634 27.7384 83.7654 27.7171 83.7595 27.6957C83.7362 27.6899 83.709 27.6821 83.7051 27.6879L83.7032 27.6899ZM83.8761 27.1808C83.7712 27.3207 83.7343 27.4995 83.7712 27.6685C83.9053 27.5441 83.9499 27.3479 83.8781 27.1769V27.1808H83.8761ZM83.9014 27.1361C84.1131 27.1031 84.0685 26.9554 84.0451 26.8194L83.9014 27.1361ZM84.1695 26.7281C84.1695 26.7281 84.1753 26.6873 84.1792 26.6659C84.1501 26.6931 84.1248 26.7203 84.0976 26.7495C84.1229 26.7436 84.1481 26.7378 84.1714 26.7281H84.1695ZM84.6533 29.7921C84.6533 29.7921 84.6669 29.8349 84.6766 29.8563C84.6941 29.8155 84.7116 29.7766 84.7291 29.7358C84.7038 29.7533 84.6786 29.7708 84.6552 29.7921H84.6533ZM84.7854 29.6659C84.9389 29.594 84.9214 29.4735 84.8864 29.3492C84.8534 29.4541 84.8204 29.5609 84.7874 29.6678H84.7854V29.6659Z" fill="#ED1F96"/>
<path d="M102.249 25.1561C102.249 25.1911 102.239 25.2241 102.224 25.2552C101.565 27.0019 100.792 28.7059 99.9115 30.3516C99.0625 31.8826 98.1357 33.4156 96.8533 34.628C96.4064 35.0497 95.8779 35.5315 95.2212 35.4538C94.6208 35.3489 94.0807 35.0244 93.7077 34.5406C93.1733 33.88 92.9577 33.0076 92.8625 32.1799C92.6526 30.2311 92.8469 28.259 93.4337 26.3879C93.9214 24.7714 94.6034 23.2248 95.2853 21.6801C94.5898 21.9055 93.9097 22.1717 93.2452 22.4748C92.9829 22.5952 92.7129 22.7585 92.4311 22.8673C92.1572 23.4249 91.8832 23.9806 91.6093 24.5363C91.4499 24.8607 91.2906 25.1852 91.1313 25.5097C91.0031 25.7739 90.6047 25.432 90.4668 25.3387C90.4066 25.3076 90.3658 25.2474 90.358 25.1813C90.3599 25.1444 90.3716 25.1075 90.391 25.0745C90.4862 24.8743 91.4441 22.8712 91.4383 22.8673C91.0341 22.6691 90.6786 22.2222 90.4454 21.8569C90.0627 21.3129 90.018 20.5979 90.3347 20.0111C90.6067 19.4787 91.0555 19.0552 91.6034 18.8162C91.9959 18.6374 92.4506 18.6588 92.8275 18.8706C93.2025 19.0377 93.4104 19.4438 93.3268 19.844C93.2977 20.0577 93.2608 20.2715 93.2161 20.5687C93.6979 20.4735 94.1098 20.4133 94.5101 20.3103C95.0619 20.186 95.6312 20.1529 96.1947 20.2151C96.9213 20.2559 97.5683 20.6853 97.887 21.3382C98.3047 22.23 97.9744 23.423 97.7723 24.3342C97.5275 25.432 97.2439 26.522 96.9446 27.6081C96.3598 29.7279 95.7147 31.8321 95.1727 33.9635C94.9298 34.9136 96.0159 33.9091 96.2083 33.7129C96.4978 33.4156 96.7737 33.1047 97.034 32.7822C97.6052 32.0769 98.1046 31.3192 98.602 30.5633C99.6143 28.9798 100.471 27.3031 101.165 25.5563C101.241 25.3698 101.316 25.1813 101.392 24.9948C101.481 24.7714 101.748 24.7908 101.946 24.8491C102.066 24.8841 102.245 25.0104 102.249 25.1522V25.1561ZM91.992 20.0092C91.4441 20.5007 91.2828 20.9806 91.3916 21.616C91.7802 21.0992 91.8521 20.9126 91.992 20.0092ZM94.9686 24.6237C95.1105 24.2196 95.2601 23.8154 95.4039 23.4132C95.5068 23.1257 95.7245 22.7585 95.5904 22.4476C95.5515 22.502 95.5088 22.5544 95.4641 22.603C95.2776 22.8537 95.1416 23.1393 95.0677 23.4424C94.9531 23.7746 94.8365 24.1088 94.7199 24.4411C94.4285 25.2727 94.1409 26.1062 93.8845 26.9514C93.6397 27.9287 93.492 28.9274 93.4454 29.9338C93.3812 30.7907 93.3346 31.6378 93.5406 32.483C93.5134 31.3172 93.5969 30.1534 93.7912 29.0051C94.0535 27.5129 94.4479 26.0479 94.9706 24.6237H94.9686ZM94.1856 31.8302C94.343 30.8898 94.4674 29.9979 94.6442 29.1178C95.0813 26.9417 94.6772 27.9384 95.5185 25.8789C95.4466 25.8847 95.365 25.8827 95.3339 25.9216C95.2504 26.0343 95.1824 26.1586 95.1319 26.2908C94.3139 28.2473 94.7063 27.1437 94.3411 29.2363C94.1953 30.0757 94.0282 30.9228 94.1856 31.834V31.8302ZM95.2018 32.4849C95.2815 32.2382 95.3533 32.0206 95.4175 31.7971L95.2018 31.8787V32.4869V32.4849ZM95.4252 31.7563C95.4563 31.4066 95.4874 31.0569 95.5166 30.7052C95.4505 30.7712 95.3631 30.8315 95.3456 30.9073C95.2698 31.1909 95.297 31.4921 95.4252 31.7563ZM95.5282 30.645C95.6487 30.4332 95.6837 30.1825 95.6254 29.9455C95.4641 30.1417 95.4272 30.4118 95.5282 30.6469V30.645ZM95.7536 24.954C95.6098 25.228 95.3611 25.4806 95.536 25.8264C95.6137 25.6535 95.6798 25.4767 95.7361 25.296C95.7555 25.1833 95.7614 25.0686 95.7536 24.954ZM95.6098 22.3738C95.7458 22.3174 95.7478 22.298 95.7517 22.0162L95.6098 22.3738ZM97.0146 25.2455C96.8553 25.2765 96.8455 25.4242 96.8106 25.5427C96.4297 26.8057 96.0489 28.0705 95.6837 29.3373C95.6487 29.518 95.6351 29.7026 95.6429 29.8872C95.6973 29.8406 95.7653 29.7998 95.7827 29.7415C96.1577 28.4533 96.5269 27.1632 96.8902 25.873C96.9485 25.669 96.9757 25.4572 97.0146 25.2455ZM95.7866 24.8938C95.9712 24.8879 95.9576 24.7578 95.9557 24.6334L95.7866 24.8938ZM96.2704 22.774C96.1305 22.8303 95.979 24.4488 95.977 24.5732C96.1383 24.5285 96.2763 22.9022 96.2704 22.7721V22.774ZM96.4647 22.4592C96.2957 22.4806 96.2996 22.6127 96.2918 22.739C96.4414 22.706 96.4414 22.5739 96.4647 22.4592ZM96.6027 22.0765C96.4822 22.1464 96.4297 22.2941 96.4822 22.4243C96.5988 22.3504 96.6493 22.2067 96.6027 22.0765ZM96.6454 22.0221C96.6843 22.0026 96.7231 21.9832 96.7601 21.9599C96.7601 21.9599 96.7387 21.9172 96.727 21.8938L96.6454 22.0221ZM97.1856 24.785C97.0398 24.8607 96.9738 25.0337 97.0301 25.1891C97.0826 25.055 97.135 24.921 97.1856 24.785Z" fill="#ED1F96"/>
<path d="M109.986 24.9191C110.054 24.9968 110.079 25.1037 110.05 25.2028C110.031 25.298 109.998 25.3893 109.951 25.4748C108.612 28.2396 107.293 31.1852 105.272 33.5323C104.081 34.9157 101.656 35.0983 100.699 33.3108L100.685 33.2855C100.601 33.1262 100.537 32.9591 100.491 32.7862C100.271 31.8497 100.228 30.8801 100.362 29.9281C100.704 26.796 101.583 23.8 102.779 20.8933C103.003 20.3434 103.288 19.8227 103.632 19.3408C104.027 18.791 104.923 18.7133 105.5 18.8065C105.548 18.8143 105.581 18.9134 105.62 18.9853C105.906 18.9251 106.158 18.9387 106.362 19.2029C106.566 19.4671 106.871 19.6731 106.778 20.0733C106.704 20.46 106.607 20.8428 106.49 21.2178C106.1 22.3058 105.678 23.3822 105.276 24.4644C104.617 26.2189 104.101 28.022 103.73 29.8581C103.533 30.7383 103.399 31.6301 103.331 32.5297C103.312 32.9319 103.37 33.7829 103.943 33.2797C104.788 32.52 105.538 31.6592 106.174 30.7169C106.819 29.7629 107.398 28.7681 107.909 27.7364C108.334 26.8951 108.731 26.0382 109.129 25.1853C109.226 24.9521 109.459 24.8045 109.712 24.8161C109.815 24.8025 109.916 24.8414 109.986 24.9191ZM101.373 31.0628C101.373 30.204 101.476 29.3491 101.68 28.5155C101.548 28.5291 101.441 28.6321 101.423 28.7662C101.225 29.9183 101.083 31.0705 101.344 32.2344C101.371 31.8458 101.365 31.4552 101.373 31.0628ZM101.687 28.4689C101.68 28.1522 101.841 27.8413 101.721 27.5207C101.551 27.8102 101.54 28.1658 101.687 28.467V28.4689ZM101.734 27.4819C101.757 27.478 101.785 27.476 101.789 27.4644C102.031 26.8387 102.266 26.2092 102.239 25.5234C101.915 26.1354 101.835 26.8096 101.736 27.4799L101.734 27.4819ZM102.587 27.7655C102.991 26.0946 103.494 24.4489 104.091 22.8362C104.19 22.5584 104.369 22.2922 104.309 21.9736C104.215 22.0571 104.138 22.1543 104.073 22.2611C103.075 24.6879 102.366 27.2215 101.958 29.8134C101.886 30.2836 101.895 30.7674 101.872 31.2454C101.872 31.2609 101.909 31.2804 101.956 31.3231C102.033 31.2065 102.068 31.0686 102.057 30.9287C102.15 29.862 102.327 28.8031 102.587 27.7636V27.7655ZM104.009 20.3978C103.442 21.5927 102.972 22.8304 102.605 24.1011C102.467 24.5422 102.377 24.9968 102.268 25.4476C102.325 25.4087 102.393 25.3738 102.41 25.3213C102.575 24.8433 102.708 24.3537 102.884 23.8816C103.356 22.6264 103.844 21.3771 104.324 20.1239C104.112 20.0753 104.071 20.2754 104.011 20.3978H104.009ZM102.849 31.9526C102.863 31.9429 102.886 31.9332 102.886 31.9254C102.886 31.9079 102.871 31.8924 102.863 31.8769L102.849 31.9546V31.9526ZM103.191 30.408C102.956 30.5964 102.958 30.6198 103.04 31.1269C103.092 30.8937 103.145 30.6528 103.191 30.406V30.408ZM103.205 30.3341C103.234 29.9864 103.327 29.6366 103.191 29.2908C103.18 29.6386 103.063 29.9902 103.205 30.3322V30.3341ZM103.442 29.0071C103.448 28.8925 103.469 28.7759 103.485 28.6593C103.419 28.739 103.36 28.8245 103.31 28.9138C103.261 29.0226 103.224 29.1373 103.199 29.2539C103.329 29.2228 103.434 29.1742 103.442 29.0071ZM103.502 28.568C103.559 28.3756 103.615 28.1813 103.665 27.9832C103.426 28.1269 103.452 28.3445 103.502 28.568ZM103.685 27.9074C103.714 27.7345 103.743 27.5596 103.772 27.3847C103.595 27.5324 103.636 27.7189 103.685 27.9054V27.9074ZM103.805 27.3148C103.984 27.1749 103.945 26.9573 103.986 26.7669C103.747 26.8873 103.813 27.1127 103.805 27.3148ZM104.007 26.7105C104.12 26.5551 104.155 26.3588 104.106 26.1743C103.982 26.3219 103.943 26.5259 104.007 26.7086V26.7105ZM104.126 26.1257C104.351 26.0499 104.293 25.8537 104.297 25.6866C104.101 25.774 104.145 25.9625 104.126 26.1257ZM104.318 25.6244C104.38 25.5253 104.437 25.4223 104.487 25.3155C104.635 24.9716 104.775 24.6257 104.909 24.2721C104.829 24.2779 104.726 24.2721 104.709 24.3051C104.503 24.7209 104.287 25.1387 104.318 25.6225V25.6244ZM104.32 21.9405C104.546 21.7326 104.664 21.4334 104.639 21.1264C104.408 21.3304 104.289 21.6335 104.322 21.9386L104.32 21.9405ZM104.48 19.8091C104.307 19.8441 104.297 19.9568 104.344 20.0947C104.39 20.0015 104.435 19.9043 104.48 19.8091ZM104.518 19.7508C104.559 19.7236 104.625 19.7003 104.518 19.6459C104.518 19.6809 104.518 19.7158 104.518 19.7508ZM104.654 21.0953C104.823 21.074 104.812 20.9302 104.837 20.8136C104.627 20.8039 104.652 20.9593 104.654 21.0953ZM104.981 20.4522C104.792 20.5008 104.802 20.6271 104.851 20.7689C104.893 20.6621 104.938 20.5552 104.981 20.4503V20.4522ZM104.919 24.2449C104.919 24.0331 105.039 23.8213 104.932 23.6095C104.798 23.798 104.794 24.0506 104.921 24.2429L104.919 24.2449ZM105.115 17.2599C105.018 17.1298 104.957 16.9782 104.94 16.8169C104.952 16.6226 104.983 16.4303 105.035 16.2418C105.237 15.5093 105.614 14.8371 106.131 14.2814C106.549 13.8189 107.143 13.5566 107.765 13.5566C108.165 13.5625 108.556 13.6752 108.898 13.8831C109.059 13.9802 109.207 14.0987 109.335 14.2386C109.518 14.4407 109.461 14.5204 109.356 14.7516C108.993 15.556 108.546 16.3351 108.224 17.1531C108.128 17.3901 108.016 17.6213 107.886 17.8409C107.767 18.0818 107.553 18.2625 107.295 18.3363C107.262 18.21 107.231 18.0896 107.2 17.9711C107.087 18.0352 106.968 18.0935 106.846 18.1401C106.452 18.2703 106.201 18.1343 106.115 17.7534C106.106 17.7049 106.112 17.6563 106.102 17.6077C106.098 17.5844 106.073 17.565 106.057 17.5455L105.636 17.6932C105.591 17.5611 105.558 17.4717 105.535 17.3785C105.521 17.3066 105.509 17.2347 105.503 17.1608L105.113 17.2619L105.115 17.2599ZM105.146 23.4016C105.245 23.2501 105.329 23.0908 105.4 22.9256C105.284 22.9256 105.179 22.9392 105.132 23.0869C105.084 23.2384 105.02 23.3861 104.961 23.5377C105.031 23.5046 105.095 23.458 105.146 23.3997V23.4016ZM105.348 19.5429C105.158 19.7994 104.948 20.0559 105.008 20.4036C105.105 20.2521 105.2 20.0967 105.299 19.9471C105.389 19.813 105.484 19.6809 105.575 19.5487C105.498 19.5449 105.375 19.506 105.348 19.541V19.5429ZM105.542 22.4107C105.327 22.5759 105.317 22.5934 105.42 22.877C105.463 22.7235 105.505 22.5701 105.544 22.4088L105.542 22.4107ZM105.577 19.5487V19.5138C105.577 19.5254 105.577 19.539 105.577 19.5507V19.5487ZM105.828 15.894C105.766 15.9776 105.704 16.0631 105.9 16.2049C105.869 16.067 105.847 15.9776 105.828 15.894ZM106.17 15.1538C106.047 15.3791 105.952 15.6162 105.853 15.8532C105.902 15.8532 105.958 15.8571 105.974 15.8377C106.18 15.587 106.384 15.3345 106.388 15.0139C106.308 15.0586 106.205 15.0935 106.17 15.1538ZM106.677 14.6C106.452 14.7108 106.339 14.8099 106.403 14.9847C106.625 14.9439 106.638 14.7982 106.677 14.6ZM107.021 15.2898C107.019 15.3286 107.021 15.3694 107.025 15.4083C107.048 15.4005 107.075 15.4005 107.091 15.385C107.106 15.3694 107.118 15.3383 107.11 15.3228C107.093 15.2937 107.071 15.2645 107.048 15.2392C107.035 15.2528 107.025 15.2703 107.019 15.2898H107.021ZM107.073 15.2043C107.342 15.1615 107.347 15.1382 107.41 14.738C107.256 14.9459 107.159 15.076 107.073 15.2043ZM107.225 17.938C107.283 17.9186 107.361 17.905 107.254 17.8312L107.225 17.94V17.938ZM108.604 15.317C108.604 15.2664 108.606 15.2159 108.608 15.1674L108.595 15.3209C108.595 15.3209 108.602 15.3209 108.604 15.317Z" fill="#ED1F96"/>
<path d="M112.296 20.7282C112.03 20.8526 112.004 21.1323 111.923 21.3616C111.408 22.8344 110.874 24.3033 110.405 25.7916C109.896 27.4081 109.35 30.4799 109.036 32.147C108.933 32.693 108.865 33.2448 108.773 33.7946C108.723 34.1055 108.659 34.4144 108.602 34.7039C108.282 34.7875 108.212 34.5932 108.221 34.4086C108.239 33.8257 108.289 33.2467 108.373 32.6697C108.884 29.662 109.873 25.3136 110.874 22.4361C111.126 21.7113 111.416 21.0002 111.686 20.2813C111.729 20.1375 111.764 19.9918 111.791 19.8442C111.46 20.0909 111.4 20.3843 111.291 20.6447C110.697 22.1174 110.182 23.6213 109.749 25.1504C109.199 27.002 108.598 30.3051 108.243 32.2034C108.132 32.8018 108.076 33.408 107.992 34.0123C107.971 34.1657 107.94 34.3173 107.913 34.4747C107.899 34.5563 107.606 34.2959 107.584 34.2687C107.402 34.0589 107.411 33.9132 107.444 33.6373C107.545 32.8134 107.701 31.9896 107.845 31.1716C108.173 29.3044 108.515 27.4373 108.995 25.6012C109.481 23.7534 110.161 21.9814 110.815 20.1881C111.074 19.4789 111.534 18.793 112.385 18.8766C112.564 18.894 112.745 18.8785 112.99 18.8785C112.943 19.0475 112.888 19.2127 112.822 19.3759C112.651 19.7334 112.459 20.0793 112.292 20.4387C112.271 20.5339 112.271 20.633 112.292 20.7282H112.296ZM125.193 25.4069C125.178 25.5526 125.139 25.6944 125.081 25.8285C124.418 27.581 123.546 29.2481 122.483 30.7908C121.509 32.1917 120.439 33.6159 119.067 34.6495C118.888 34.7856 118.715 34.6903 118.5 34.7564C118.082 34.8905 117.629 34.8477 117.245 34.6398C116.998 34.5058 116.704 34.4824 116.44 34.5777C116.267 34.4416 116.116 34.2804 115.991 34.0997C115.822 33.5945 115.568 33.1418 115.455 32.6133C115.356 32.0654 115.309 31.5097 115.313 30.9521C115.251 28.3815 115.842 25.9353 116.701 23.53C116.811 23.221 116.926 22.916 117.043 22.6109C117.212 22.1718 117.39 21.7385 117.569 21.3033C117.633 21.1459 117.487 21.247 117.427 21.2936C117.147 21.519 116.877 21.7502 116.613 21.995C116.16 22.4147 115.729 22.8577 115.321 23.3201C114.913 23.7825 114.528 24.2663 114.171 24.7696C113.51 25.6964 112.91 26.6678 112.3 27.6296C112.243 27.719 112.193 27.8123 112.146 27.9075C111.75 28.7138 111.538 29.625 111.338 30.4974C111.118 31.4534 110.947 32.421 110.755 33.3827C110.71 33.7577 110.613 34.1249 110.471 34.4747C110.376 34.6301 110.24 34.7564 110.081 34.8419C110.225 33.237 110.759 30.546 110.967 29.0694C110.916 29.2675 110.856 29.4618 110.782 29.6522C110.722 29.8757 110.67 30.103 110.619 30.3284C110.512 30.8297 110.425 31.3348 110.341 31.84C110.215 32.6075 110.093 33.375 109.959 34.1424C109.924 34.3348 109.92 34.5874 109.751 34.7214C109.626 34.8361 109.459 34.8885 109.292 34.8672C109.175 34.8477 109.069 34.7894 108.985 34.7039C108.952 34.5971 108.944 34.4844 108.964 34.3756C108.997 33.8607 109.067 33.3478 109.175 32.8426C109.648 30.1224 110.545 26.048 111.404 23.427C111.651 22.6712 111.936 21.929 112.199 21.179C112.251 21.0313 112.276 20.8739 112.313 20.7204L112.288 20.7437V20.734C112.288 20.734 112.3 20.7263 112.308 20.7243C112.624 20.4018 112.71 19.9568 112.914 19.576C113.011 19.3934 113.108 19.2127 113.211 19.0184C113.703 19.0378 113.914 19.405 114.181 19.6712C114.546 20.0346 114.28 20.6855 114.134 21.0818C113.769 22.063 113.399 23.0423 113.026 24.0215C113.003 24.0818 112.929 24.4451 113.094 24.3033C113.104 24.2955 113.114 24.2858 113.122 24.2761L113.215 24.1653L113.238 24.1381C113.271 24.1012 113.302 24.0623 113.333 24.0254C114.12 23.087 114.876 22.1135 115.791 21.2955C116.712 20.4756 117.705 19.7373 118.758 19.0922C118.921 18.9912 119.205 18.8513 119.353 19.0534C119.427 19.1214 119.526 19.1525 119.625 19.1408C119.73 19.1408 119.831 19.1175 119.926 19.0747C120.033 19.0417 120.147 19.065 120.233 19.135C120.28 19.2515 120.303 19.374 120.301 19.5002C120.351 19.4925 120.416 19.4983 120.447 19.4672C120.645 19.2788 120.859 19.1816 121.096 19.3817C121.342 19.5896 121.49 19.8383 121.286 20.1628C121.29 20.1725 121.296 20.1803 121.302 20.19L121.298 20.157L121.754 20.0579C121.937 20.1803 121.877 20.3649 121.836 20.5106C121.634 21.2139 121.274 22.5196 121.002 23.1958C120.266 25.0358 119.774 26.9437 119.308 28.8634C119.145 29.5337 118.986 30.2468 118.871 30.9424C118.752 31.6613 118.579 32.5026 118.663 33.2331C118.71 33.6373 118.935 33.4294 119.168 33.239C119.39 33.0524 119.598 32.8504 119.792 32.6347C120.18 32.2092 120.552 31.7681 120.905 31.3135C121.642 30.3575 122.304 29.3453 122.883 28.2844C123.344 27.4509 123.728 26.5804 124.136 25.7216C124.259 25.4651 124.426 24.8259 124.797 24.824C125.065 24.824 125.205 25.1854 125.187 25.4107L125.193 25.4069ZM111.554 26.695C111.901 26.0616 112.146 25.3758 112.28 24.6646C112.216 24.7191 112.139 24.7676 112.113 24.8356C111.952 25.2806 111.8 25.7275 111.659 26.1782C111.614 26.3492 111.581 26.5202 111.556 26.695H111.554ZM112.298 24.6102C112.414 24.4742 112.453 24.2858 112.395 24.1148C112.261 24.243 112.22 24.4412 112.298 24.6102ZM112.422 24.0584C112.591 23.9594 112.591 23.8097 112.55 23.6465C112.508 23.7845 112.463 23.9205 112.422 24.0584ZM112.566 23.5766C112.772 23.4464 112.782 23.3726 112.632 23.0792C112.609 23.2443 112.587 23.4095 112.566 23.5766ZM112.69 23.0073C112.881 22.9121 112.875 22.8771 112.809 22.5565C112.834 22.7178 112.791 22.881 112.692 23.0073H112.69ZM113.026 22.2379C112.955 22.3409 112.885 22.4458 112.813 22.5526C113.019 22.5254 113.046 22.3953 113.026 22.2379ZM113.058 22.1815C113.199 22.133 113.195 22.0164 113.188 21.8998L113.058 22.1815ZM113.225 21.8104C113.316 21.7327 113.365 21.6161 113.351 21.4957C113.308 21.6006 113.265 21.7055 113.225 21.8104ZM119.03 20.1414C118.465 20.8059 117.952 22.1679 117.639 22.949C117.089 24.3674 116.648 25.8246 116.324 27.311C115.999 28.7138 115.869 30.1535 115.935 31.5913C115.925 32.0576 116.04 32.5162 116.267 32.9222C115.826 28.4806 117.311 23.9749 119.03 20.1414ZM117.198 29.4657C117.674 26.5046 118.671 23.0559 120.054 20.3765C120.212 20.1239 120.299 19.8325 120.305 19.5352C120.083 19.8869 119.829 20.2191 119.646 20.5864C118.544 22.8791 117.713 25.2922 117.171 27.7773C116.854 29.1218 116.726 30.5052 116.79 31.8847C116.806 32.0013 116.829 32.1159 116.862 32.2286C116.957 32.0829 117.01 31.9119 117.01 31.7351C117.07 30.9773 117.079 30.2138 117.2 29.4638L117.198 29.4657ZM118.29 31.6982C118.313 31.4165 118.358 31.1367 118.391 30.8472C118.311 30.9055 118.203 30.9599 118.193 31.0279C118.098 31.5991 118.098 32.182 118.191 32.7532C118.243 32.4035 118.276 32.0518 118.29 31.7001V31.6982ZM118.401 30.7675C118.408 30.3867 118.566 30.002 118.401 29.6231C118.339 30.0059 118.216 30.3886 118.401 30.7675ZM118.408 29.5765C118.554 29.5493 118.595 29.4424 118.632 29.3025C119.065 27.6918 119.51 26.083 119.941 24.4704C119.973 24.3033 119.984 24.1323 119.976 23.9632C119.868 24.1964 119.749 24.4257 119.662 24.6646C119.075 26.2559 118.737 27.9133 118.41 29.5765H118.408ZM120.421 23.1997C120.142 23.3162 119.971 23.598 119.998 23.8991C120.122 23.8991 120.142 23.7961 120.182 23.7029C120.256 23.53 120.346 23.3648 120.427 23.1958C120.427 23.1666 120.423 23.1394 120.421 23.12V23.1997Z" fill="#ED1F96"/>
<path d="M133.315 17.5806C133.315 17.872 133.078 18.1071 132.788 18.1071L130.389 18.0877C130.389 18.0877 130.371 18.0857 130.363 18.0857C130.089 18.7833 129.819 19.4847 129.553 20.188C128.91 21.892 128.271 23.5941 127.733 25.333C127.488 26.1238 127.261 26.9204 127.058 27.7248C126.829 28.638 126.61 29.5551 126.45 30.4819C126.324 31.2746 126.24 32.0732 126.198 32.8737C126.147 33.6683 127.033 32.7027 127.193 32.5025C128.821 30.4139 130.179 28.127 131.232 25.6963C131.36 25.4068 131.529 24.9017 131.811 24.7793C131.966 24.7093 132.145 24.7113 132.301 24.7831C132.551 24.9017 132.508 24.9872 132.4 25.2125C131.061 28.0182 129.705 30.8549 127.803 33.3322C127.406 33.8471 126.913 34.3192 126.295 34.5174C124.898 34.9623 123.623 33.9345 123.332 32.6075C123.073 31.43 123.248 30.1069 123.427 28.9294C123.635 27.6024 123.915 26.2889 124.266 24.993C124.898 22.6517 125.677 20.3512 126.598 18.1071H124.364C124.072 18.1071 123.837 17.8701 123.837 17.5806C123.837 17.2891 124.074 17.054 124.364 17.054H127.014C127.014 17.054 127.027 17.056 127.035 17.056C127.406 16.1894 127.795 15.3306 128.199 14.4796C128.469 13.9123 128.741 13.2458 129.172 12.7795C129.271 12.6571 129.378 12.5444 129.495 12.4376C129.648 12.2899 129.86 12.218 130.07 12.2433C130.249 12.2646 130.437 12.218 130.61 12.253C130.822 12.2957 130.826 12.4414 130.698 12.5969C130.641 12.9447 130.336 13.1448 130.2 13.4518C129.831 14.2834 128.951 16.3079 128.572 17.1337C128.467 17.2678 128.488 17.4601 128.621 17.567C128.654 17.4931 128.683 17.4232 128.714 17.3552C129.186 16.3721 130.144 14.1843 130.602 13.1934C130.663 12.9991 130.696 12.7989 130.702 12.5969L131.178 12.3948C131.605 12.4997 131.704 12.9136 131.978 13.1428C132.06 13.2128 132.046 13.4479 132.013 13.5936C131.755 14.6914 131.286 15.7289 130.871 16.7878C130.836 16.8772 130.801 16.9685 130.764 17.0599H132.784C133.076 17.0599 133.311 17.2969 133.311 17.5884L133.315 17.5806ZM124.587 26.9787C124.604 26.8233 124.599 26.6639 124.568 26.5104C124.451 26.9729 124.323 27.4334 124.224 27.8997C123.975 28.9683 123.831 30.0583 123.794 31.1561C123.773 31.5777 123.808 32.0013 123.899 32.4132C123.93 32.3374 123.954 32.2577 123.969 32.1781C123.975 30.4275 124.183 28.6846 124.585 26.9806L124.587 26.9787ZM124.851 30.3595C125.123 28.1775 125.615 26.0286 126.314 23.9438C126.835 22.3525 127.418 20.7826 127.972 19.203C128.028 19.0417 128.063 18.8707 128.117 18.6686C127.787 18.7328 127.785 18.9776 127.713 19.1544C126.435 22.2806 125.465 25.5234 124.816 28.8362C124.676 29.5531 124.636 30.2876 124.566 31.0162C124.525 31.3387 124.57 31.6671 124.7 31.9663C124.758 31.3387 124.793 30.8471 124.851 30.3575V30.3595ZM124.591 26.4211C124.655 26.3667 124.737 26.3161 124.754 26.2501C124.908 25.7235 125.038 25.1951 125.185 24.6685C125.708 22.811 126.326 20.9847 127.039 19.1913C127.103 19.03 127.233 18.8785 127.136 18.6842C126.903 18.6686 126.913 18.8785 126.864 18.9989C126.235 20.5708 125.691 22.1776 125.24 23.8097C124.999 24.6724 124.803 25.5487 124.589 26.4211H124.591ZM126.196 29.4696C126.291 28.8692 126.411 28.2747 126.52 27.6743C126.47 27.719 126.406 27.7617 126.394 27.8142C126.171 28.9333 125.939 30.0525 125.749 31.1774C125.714 31.5563 125.712 31.9371 125.739 32.316C125.916 31.364 126.044 30.4158 126.194 29.4676L126.196 29.4696ZM126.54 27.5985C126.596 27.4217 126.65 27.2449 126.701 27.0642C126.452 27.1827 126.505 27.3945 126.54 27.5985ZM126.806 26.524C126.633 26.6581 126.658 26.8271 126.718 27.002L126.806 26.524ZM126.833 26.4308C126.895 26.2753 126.955 26.1199 127.014 25.9625C126.798 26.0597 126.823 26.2481 126.833 26.4308ZM127.031 25.8984C127.058 25.7371 127.086 25.5778 127.113 25.4185C126.979 25.5409 126.946 25.7391 127.031 25.9004V25.8984ZM127.138 25.3447C127.344 25.0202 127.525 24.6899 127.404 24.2896C127.272 24.6297 127.103 24.9638 127.138 25.3466V25.3447ZM127.525 24.2216C127.713 23.7981 127.962 23.3881 127.904 22.8965C127.667 23.3123 127.503 23.765 127.42 24.2352C127.465 24.2352 127.519 24.2391 127.527 24.2216H127.525ZM127.595 17.2678C127.573 17.3183 127.616 17.396 127.634 17.4698C127.853 17.3843 127.878 17.19 127.954 17.0327C128.302 16.306 129.122 14.3708 129.477 13.648C129.555 13.5178 129.645 13.3974 129.746 13.2827C129.742 13.2789 129.738 13.275 129.734 13.2711V13.2905C129.534 13.2147 129.45 13.3663 129.367 13.4906C128.83 14.2931 127.966 16.3818 127.597 17.2678H127.595ZM129.147 19.8111C129.176 19.6906 129.19 19.5682 129.188 19.4439C129.163 19.4458 129.135 19.4478 129.13 19.4594C128.613 20.5281 128.205 21.6433 127.911 22.7936C127.908 22.811 127.909 22.8305 127.911 22.848C127.976 22.7877 128.063 22.7353 128.09 22.6595C128.45 21.7133 128.801 20.7651 129.147 19.813V19.8111ZM129.196 19.4128C129.404 19.0883 129.406 19.0805 129.388 18.7716C129.27 18.9931 129.12 19.1699 129.196 19.4128ZM130.004 17.2503C129.996 17.2697 130.01 17.2988 130.014 17.3222C130.049 17.2988 130.109 17.2775 130.109 17.2522C130.109 17.1939 130.101 17.1356 130.088 17.0774C130.058 17.1356 130.027 17.192 130.002 17.2503H130.004ZM130.323 16.6596C130.323 16.681 130.323 16.7043 130.327 16.7257C130.334 16.7606 130.346 16.7956 130.356 16.8287C130.363 16.7878 130.365 16.747 130.367 16.7062C130.367 16.6888 130.34 16.6752 130.325 16.6577L130.323 16.6596Z" fill="#ED1F96"/>
</svg>
